<svg width="49" height="53" viewBox="0 0 49 53" fill="none" xmlns="http://www.w3.org/2000/svg">
<path d="M18.2253 37.1936V23.091M18.2253 23.091H30.571M18.2253 23.091L24.3981 10.5554L30.571 23.091M30.571 23.091V37.1936M36.7438 37.1936V27.7919L41.3735 18.3902M46.0031 37.1936V27.7919L41.3735 18.3902M41.3735 18.3902V15.185M2.79321 37.1936V27.7919L7.42284 18.3902M12.0525 37.1936V27.7919L7.42284 18.3902M7.42284 18.3902V15.185M47.5463 45.0284H27.8405M20.9558 45.0284H1.25M1.25 37.1936V51.2962H19.7685V48.1623C19.7685 46.9155 20.2563 45.7198 21.1245 44.8383C21.9927 43.9567 23.1703 43.4614 24.3981 43.4614C25.626 43.4614 26.8036 43.9567 27.6718 44.8383C28.54 45.7198 29.0278 46.9155 29.0278 48.1623V51.2962H47.5463V37.1936H1.25Z" stroke="#424242" stroke-width="2.5" stroke-linecap="round" stroke-linejoin="round"/>
<path d="M24.3979 0L25.5204 3.45485L29.1531 3.45485L26.2142 5.59007L27.3367 9.04492L24.3979 6.90971L21.459 9.04492L22.5815 5.59007L19.6427 3.45485L23.2753 3.45485L24.3979 0Z" fill="#F8C009"/>
</svg>
