<svg width="63" height="54" viewBox="0 0 63 54" fill="none" xmlns="http://www.w3.org/2000/svg">
<g clip-path="url(#clip0_1081_2503)">
<path d="M30.0559 14.4787C30.0559 13.9095 29.5846 13.4438 29.0087 13.4438C28.4327 13.4438 27.9614 13.9095 27.9614 14.4787C27.9614 15.0478 28.4327 15.5135 29.0087 15.5135C29.5846 15.5135 30.0559 15.0478 30.0559 14.4787Z" fill="#424242"/>
<path d="M33.6253 16.9967C33.4158 16.876 33.154 16.9364 33.0231 17.1433C32.9096 17.3244 32.7177 17.4365 32.4995 17.4365C32.1679 17.4365 31.8886 17.1606 31.8886 16.8243C31.8886 16.7898 31.8799 16.7553 31.8711 16.7294H32.6653C32.77 16.7294 32.866 16.6432 32.866 16.5311V15.9447C32.866 15.8412 32.7787 15.7463 32.6653 15.7463H30.2479C30.1432 15.7463 30.0472 15.8326 30.0472 15.9447V16.5311C30.0472 16.6346 30.1345 16.7294 30.2479 16.7294H31.0421C31.0421 16.7294 31.0246 16.7898 31.0246 16.8243C31.0246 17.1606 30.7541 17.4365 30.4137 17.4365C30.2043 17.4365 30.0036 17.3244 29.8901 17.1433C29.7679 16.9364 29.4974 16.876 29.288 16.9967C29.0785 17.1175 29.0174 17.3848 29.1396 17.5918C29.4101 18.0402 29.8814 18.2989 30.405 18.2989C30.8152 18.2989 31.1817 18.135 31.4522 17.8677C31.7228 18.135 32.0893 18.2989 32.4995 18.2989C33.0231 18.2989 33.4944 18.0315 33.7649 17.5918C33.8871 17.3848 33.826 17.1261 33.6165 16.9967H33.6253Z" fill="#424242"/>
<path d="M33.913 13.4353C33.337 13.4353 32.8657 13.901 32.8657 14.4787C32.8657 15.0565 33.337 15.5222 33.913 15.5222C34.4889 15.5222 34.9602 15.0565 34.9602 14.4787C34.9602 13.901 34.4889 13.4353 33.913 13.4353Z" fill="#424242"/>
<path d="M58.5929 46.7736C58.209 45.4197 57.3013 44.2986 56.1145 43.6001V27.5778H57.3712C57.9733 27.5778 58.462 27.0949 58.462 26.4998V22.5158C58.462 21.9208 57.9733 21.4379 57.3712 21.4379H56.3588V19.9029C56.3588 18.963 55.5821 18.1955 54.6309 18.1955H52.6935V17.4797C52.6935 16.5398 51.9168 15.7723 50.9656 15.7723H49.0107C48.0595 15.7723 47.2828 16.5398 47.2828 17.4797V19.4027C47.0559 19.3424 46.8203 19.2993 46.5759 19.2993H46.0087C46.5497 18.5404 46.8813 17.6177 46.8813 16.6001C46.8813 14.8237 45.869 13.2542 44.3767 12.4867C44.9178 11.7882 45.2232 10.9259 45.2232 10.0032C45.2232 7.76972 43.4342 5.95018 41.2263 5.95018C41.139 5.95018 41.0517 5.95018 40.9645 5.9588C40.9732 5.84669 40.9819 5.73459 40.9819 5.63111C40.9819 3.39764 39.1929 1.57809 36.985 1.57809C36.2257 1.57809 35.4927 1.79368 34.8643 2.19898C34.2011 0.888215 32.8484 0 31.3212 0C29.7939 0 28.4238 0.896838 27.7693 2.22485C27.1322 1.81092 26.3904 1.58671 25.6137 1.58671C23.4058 1.58671 21.6168 3.40626 21.6168 5.63973C21.6168 5.75184 21.6168 5.85532 21.6342 5.96742C19.3827 5.83807 17.4453 7.70936 17.4453 10.0118C17.4453 10.9776 17.7944 11.9004 18.3878 12.6161C17.0177 13.4181 16.1188 14.9186 16.1188 16.6088C16.1188 17.6177 16.4417 18.5404 16.9827 19.3079H16.4329C16.1886 19.3079 15.953 19.351 15.7261 19.4114V17.4883C15.7261 16.5484 14.9494 15.7809 13.9981 15.7809H12.0433C11.092 15.7809 10.3153 16.5484 10.3153 17.4883V18.2041H8.37795C7.42671 18.2041 6.65001 18.9716 6.65001 19.9115V21.4465H5.63768C5.03552 21.4465 4.54681 21.9294 4.54681 22.5244V26.5085C4.54681 27.1035 5.03552 27.5864 5.63768 27.5864H6.89437V43.4622C5.56787 44.152 4.55554 45.3679 4.1541 46.8512C1.74546 47.4462 0.00878906 49.5676 0.00878906 52.0856C0.00878906 52.4305 0.0436969 52.7841 0.113513 53.1377C0.218236 53.6464 0.663312 54.0086 1.18693 54.0086H17.9165C18.4401 54.0086 18.8852 53.6464 18.9899 53.1377C18.9987 53.0945 18.9987 53.0514 19.0074 53.0083H25.8406C25.9104 53.0083 25.9803 52.9824 26.0413 52.9652C26.1112 52.9824 26.1722 53.0083 26.2421 53.0083C26.8442 53.0083 27.3329 52.5254 27.3329 51.9304V40.4181C27.3329 38.4519 28.8427 36.8566 30.7103 36.8566H32.316C34.1749 36.8566 35.6934 38.4519 35.6934 40.4181V51.9304C35.6934 52.5254 36.1821 53.0083 36.7842 53.0083C36.8104 53.0083 36.8366 52.9911 36.8715 52.9911C36.8977 52.9911 36.9239 53.0083 36.9588 53.0083H44.0276C44.0276 53.0514 44.0364 53.0945 44.0451 53.1377C44.1498 53.6464 44.5949 54.0086 45.1185 54.0086H61.8481C62.3717 54.0086 62.8168 53.6464 62.9215 53.1377C62.9913 52.7841 63.0262 52.4305 63.0262 52.0856C63.0262 49.4641 61.1499 47.2823 58.6278 46.7822L58.5929 46.7736ZM53.3393 42.824C51.0877 42.824 49.1329 44.1865 48.3038 46.1613V27.8365H53.9415V42.8758C53.7407 42.8499 53.54 42.824 53.3393 42.824ZM56.2803 25.4219H49.2376V23.5937H56.2803V25.4219ZM54.6134 19.8943V21.4293H52.6935V19.9115L54.6134 19.8943ZM50.9481 17.4797V21.4379H49.194C49.1591 21.2482 49.098 21.0671 49.0195 20.8946V17.497L50.9481 17.4797ZM17.8642 16.6001C17.8642 15.16 18.8765 13.9527 20.2641 13.7371C20.6393 13.6768 20.9361 13.3836 20.9884 13.0128C21.0408 12.642 20.8488 12.2712 20.4997 12.1073C19.6968 11.7279 19.1819 10.9 19.1819 10.0032C19.1819 8.7183 20.1943 7.67486 21.4335 7.67486C21.7913 7.67486 22.1404 7.76972 22.4895 7.95944C22.8298 8.14915 23.2574 8.08879 23.528 7.81284C23.8072 7.53689 23.8596 7.12296 23.6763 6.77803C23.4669 6.40722 23.3622 6.01916 23.3622 5.62249C23.3622 4.33759 24.3745 3.29416 25.6137 3.29416C26.3642 3.29416 27.0624 3.68221 27.4813 4.32035C27.682 4.63941 28.0747 4.78601 28.4413 4.69115C28.8078 4.5963 29.0696 4.27723 29.0871 3.90642C29.1569 2.67327 30.1343 1.71607 31.3212 1.71607C32.508 1.71607 33.4593 2.65602 33.5553 3.8633C33.5814 4.22549 33.8433 4.53593 34.2011 4.63079C34.5589 4.72565 34.9429 4.58767 35.1523 4.28585C35.5799 3.67359 36.2606 3.30278 36.985 3.30278C38.2242 3.30278 39.2365 4.34622 39.2365 5.63111C39.2365 6.03641 39.1318 6.42447 38.9136 6.8039C38.6954 7.19195 38.8264 7.69211 39.1929 7.95081C39.4721 8.14915 39.8387 8.1664 40.1354 7.99393C40.4845 7.78697 40.851 7.68349 41.2263 7.68349C42.4655 7.68349 43.4778 8.72692 43.4778 10.0118C43.4778 10.9 42.9891 11.702 42.195 12.0987C41.8459 12.2712 41.6539 12.6592 41.7324 13.03C41.811 13.4095 42.1339 13.694 42.5179 13.7199C43.984 13.832 45.1272 15.0996 45.1272 16.6001C45.1272 17.8419 44.3767 18.8853 43.2946 19.2993H38.8089C39.0707 18.7991 39.1493 18.2127 39.0183 17.6177L37.7791 13.2025C38.8962 12.7454 39.6729 11.6589 39.6729 10.3999C39.6729 8.7183 38.294 7.34717 36.6097 7.34717C35.3094 7.34717 34.1923 8.15778 33.7647 9.33919H29.1656C28.738 8.1664 27.6209 7.34717 26.3206 7.34717C24.6276 7.34717 23.2574 8.7183 23.2574 10.3999C23.2574 11.6244 24.008 12.6937 25.0901 13.168L23.72 17.6953C23.6065 18.2472 23.6938 18.8077 23.9556 19.2993H19.6445C18.606 18.8681 17.8729 17.8247 17.8729 16.6001H17.8642ZM35.8505 12.7972L37.3166 18.0316C37.3602 18.2472 37.3166 18.4628 37.177 18.6353C37.0984 18.7301 36.9239 18.894 36.6359 18.894H26.1024C25.8144 18.8853 25.6486 18.7301 25.5701 18.6353C25.4305 18.4714 25.3781 18.2558 25.4043 18.1179L27.0188 12.8144C27.0973 12.5644 27.0537 12.2884 26.8966 12.0728C26.7482 11.8572 26.5039 11.7193 26.2333 11.702C25.5352 11.6589 24.9941 11.0897 24.9941 10.3999C24.9941 9.66688 25.5875 9.07186 26.3119 9.07186C26.9751 9.07186 27.5337 9.58927 27.5947 10.2791C27.6384 10.7189 28.0136 11.0639 28.4674 11.0639H34.4541C34.9079 11.0639 35.2832 10.7276 35.3268 10.2791C35.3879 9.58927 35.9465 9.07186 36.6097 9.07186C37.334 9.07186 37.9275 9.66688 37.9275 10.3999C37.9275 11.1329 37.3689 11.6761 36.6621 11.7106C36.4003 11.7193 36.1472 11.8486 35.9901 12.0642C35.833 12.2798 35.7806 12.5471 35.8505 12.8058V12.7972ZM15.9442 21.938C15.9442 21.6707 16.1624 21.4551 16.4329 21.4551H46.5672C46.8377 21.4551 47.0559 21.6707 47.0559 21.938V25.4219H15.9442V21.938ZM13.9807 17.4797V20.9032C13.9021 21.0757 13.8498 21.2568 13.8149 21.4379H12.0607V19.9029C12.0607 19.9029 12.0607 19.8512 12.0607 19.8253V17.497L13.9894 17.4797H13.9807ZM8.36923 19.9115L10.3066 19.8943V21.4293H8.37795V19.9115H8.36923ZM6.71983 23.5937H13.7625V25.4219H6.71983V23.5937ZM9.06738 27.8365H14.705V46.7736H14.6876C14.033 44.4711 11.9036 42.8326 9.42519 42.8326C9.30301 42.8326 9.18956 42.8585 9.06738 42.8585V27.8365ZM2.19053 51.8441C2.30398 50.266 3.55194 48.9984 5.17516 48.8432C5.69005 48.7914 6.10021 48.3948 6.15258 47.886C6.33584 46.2303 7.74088 44.9799 9.41646 44.9799C11.092 44.9799 12.4884 46.2217 12.6803 47.8687C12.7414 48.3948 13.1865 48.8001 13.7189 48.8173C15.4206 48.8863 16.7733 50.1884 16.8867 51.8355H2.19053V51.8441ZM32.2986 34.6921H30.6928C27.6296 34.6921 25.1337 37.2619 25.1337 40.4095V50.8438H18.9114C18.6147 49.5934 17.8816 48.5155 16.8693 47.7653V27.5778H46.1046V47.7653C45.0923 48.5155 44.3593 49.5934 44.0625 50.8438H37.8489V40.4095C37.8489 37.2533 35.353 34.6921 32.2899 34.6921H32.2986ZM46.1046 51.8441C46.2181 50.266 47.4661 48.9984 49.0893 48.8432C49.6042 48.7914 50.0143 48.3948 50.0667 47.886C50.25 46.2303 51.655 44.9799 53.3306 44.9799C55.0062 44.9799 56.4025 46.2217 56.5945 47.8687C56.6555 48.3948 57.1006 48.8001 57.633 48.8173C59.3347 48.8863 60.6874 50.1884 60.8009 51.8355H46.0959L46.1046 51.8441Z" fill="#424242"/>
<path d="M26.3029 9.56348C25.823 9.56348 25.439 9.94291 25.439 10.4172C25.439 10.8915 25.823 11.2709 26.3029 11.2709C26.7829 11.2709 27.1669 10.8915 27.1669 10.4172C27.1669 9.94291 26.7829 9.56348 26.3029 9.56348Z" fill="#F8C009"/>
<path d="M36.6184 11.2709C37.0955 11.2709 37.4823 10.8887 37.4823 10.4172C37.4823 9.9457 37.0955 9.56348 36.6184 9.56348C36.1412 9.56348 35.7544 9.9457 35.7544 10.4172C35.7544 10.8887 36.1412 11.2709 36.6184 11.2709Z" fill="#F8C009"/>
</g>
<defs>
<clipPath id="clip0_1081_2503">
<rect width="63" height="54" fill="white"/>
</clipPath>
</defs>
</svg>
