<svg width="44" height="55" viewBox="0 0 44 55" fill="none" xmlns="http://www.w3.org/2000/svg">
<g clip-path="url(#clip0_1081_2342)">
<path d="M3.34895 18.3699C4.91395 18.0952 6.00946 16.8868 5.68863 15.0976C5.37563 13.3085 2.19868 11.8882 2.19868 11.8882C2.19868 11.8882 -0.289673 14.3129 0.0233269 16.1021C0.336327 17.8912 1.77613 18.6445 3.34113 18.3699H3.34895Z" fill="#F8B737"/>
<path d="M44 34.0091C44 28.6339 39.9388 24.1925 34.7352 23.5961V11.2605C34.7352 10.7191 34.297 10.2796 33.757 10.2796H24.2418V9.25168C24.2418 9.16536 24.2105 9.08689 24.1949 9.00057H26.2842C26.7145 9.00057 27.0667 8.64745 27.0667 8.21587V4.58268C27.0667 4.15109 26.7145 3.79797 26.2842 3.79797H23.8584V0.588529C23.8584 0.2668 23.5924 0 23.2715 0H19.6407C19.3199 0 19.0539 0.2668 19.0539 0.588529V3.79013H16.6281C16.1977 3.79013 15.8456 4.14324 15.8456 4.57483V8.20802C15.8456 8.63961 16.1977 8.99272 16.6281 8.99272H18.7252C18.6939 9.08689 18.6626 9.18105 18.6626 9.29091V10.2718H9.1474C8.60747 10.2718 8.16927 10.7112 8.16927 11.2527V33.7031L5.59485 19.139C5.51659 18.7152 5.11752 18.4249 4.68714 18.5034L2.30052 18.9271C2.09707 18.9663 1.91709 19.0762 1.79189 19.2488C1.67452 19.4215 1.62757 19.6333 1.65887 19.8374L4.90624 38.2387C4.75757 38.4113 4.66367 38.6232 4.66367 38.8665V42.7586C4.66367 43.3 5.10187 43.7395 5.64179 43.7395H7.3007L4.86712 53.7837C4.79669 54.0741 4.86712 54.3879 5.04709 54.6233C5.23489 54.8588 5.51659 55 5.81394 55H9.4604C9.91425 55 10.3055 54.694 10.4072 54.2467L12.9503 43.7395H18.6548V50.1427C18.6548 50.6841 19.093 51.1236 19.6329 51.1236H23.2794C23.8193 51.1236 24.2575 50.6841 24.2575 50.1427V43.7395H29.6567C29.7663 43.7866 29.8837 43.8258 29.9932 43.865L32.505 54.2467C32.6146 54.6861 33.0058 55 33.4519 55H37.0983C37.3957 55 37.6852 54.8588 37.8652 54.6233C38.053 54.3879 38.1156 54.0819 38.0451 53.7837L35.7368 44.2495C40.4396 43.2294 43.9765 39.0234 43.9765 34.0013L44 34.0091ZM20.2276 1.17706H22.6847V3.79013H20.2276V1.17706ZM17.4106 5.35954H25.5017V7.42331H17.4106V5.35954ZM22.3404 8.99272C22.3169 9.07119 22.2934 9.14966 22.2934 9.24383V10.0364H20.6189V9.29091C20.6189 9.1889 20.5876 9.08689 20.5563 8.99272H22.3325H22.3404ZM10.1255 12.2336H32.7789V23.5569C27.364 23.9492 23.0837 28.4848 23.0837 34.0091C23.0837 35.296 23.3263 36.5202 23.7489 37.658H10.1255V12.2336ZM4.19417 20.1826L7.32417 37.8777H6.44777L3.34907 20.3317L4.19417 20.1826ZM8.7092 53.0382H7.0816L9.3352 43.7395H10.9628L8.7092 53.0382ZM22.3169 49.1618H20.6267V43.7395H22.3169V49.1618ZM23.295 41.7777H6.63557V39.8473H24.86C25.3373 40.5614 25.9086 41.2049 26.5502 41.7777H23.3028H23.295ZM35.8776 53.0382H34.25L32.1529 44.3908C32.6068 44.4536 33.0684 44.4928 33.5458 44.4928C33.6318 44.4928 33.7179 44.485 33.804 44.4771L35.8776 53.0382ZM33.5379 42.531C28.8508 42.531 25.0322 38.7017 25.0322 34.0013C25.0322 29.3009 28.8429 25.4715 33.5379 25.4715C38.2329 25.4715 42.0437 29.2931 42.0437 34.0013C42.0437 38.7095 38.2329 42.531 33.5379 42.531Z" fill="#424242"/>
<path d="M37.967 28.7358C36.5507 28.7358 35.4004 29.8894 35.4004 31.3097C35.4004 32.73 36.5507 33.8835 37.967 33.8835C39.3833 33.8835 40.5336 32.73 40.5336 31.3097C40.5336 29.8894 39.3833 28.7358 37.967 28.7358ZM37.967 32.6986C37.2001 32.6986 36.5741 32.0708 36.5741 31.3018C36.5741 30.5328 37.2001 29.9051 37.967 29.9051C38.7338 29.9051 39.3598 30.5328 39.3598 31.3018C39.3598 32.0708 38.7338 32.6986 37.967 32.6986Z" fill="#424242"/>
<path d="M35.7525 39.0861C36.9712 39.0861 37.9592 38.0954 37.9592 36.8733C37.9592 35.6511 36.9712 34.6604 35.7525 34.6604C34.5338 34.6604 33.5459 35.6511 33.5459 36.8733C33.5459 38.0954 34.5338 39.0861 35.7525 39.0861Z" fill="#F8B737"/>
<path d="M31.8009 27.6453C30.7524 27.6453 29.8916 28.5006 29.8916 29.5599C29.8916 30.6193 30.7445 31.4746 31.8009 31.4746C32.8573 31.4746 33.7102 30.6193 33.7102 29.5599C33.7102 28.5006 32.8573 27.6453 31.8009 27.6453ZM31.8009 30.2976C31.394 30.2976 31.0654 29.968 31.0654 29.5599C31.0654 29.1519 31.394 28.8223 31.8009 28.8223C32.2078 28.8223 32.5365 29.1519 32.5365 29.5599C32.5365 29.968 32.2078 30.2976 31.8009 30.2976Z" fill="#424242"/>
<path d="M30.0011 31.8042C28.9525 31.8042 28.0918 32.6595 28.0918 33.7189C28.0918 34.7782 28.9447 35.6336 30.0011 35.6336C31.0575 35.6336 31.9104 34.7782 31.9104 33.7189C31.9104 32.6595 31.0575 31.8042 30.0011 31.8042ZM30.0011 34.4565C29.5942 34.4565 29.2655 34.1269 29.2655 33.7189C29.2655 33.3108 29.5942 32.9813 30.0011 32.9813C30.408 32.9813 30.7366 33.3108 30.7366 33.7189C30.7366 34.1269 30.408 34.4565 30.0011 34.4565Z" fill="#424242"/>
<path d="M29.6959 36.2847C28.6474 36.2847 27.7866 37.14 27.7866 38.1993C27.7866 39.2587 28.6395 40.114 29.6959 40.114C30.7523 40.114 31.6052 39.2587 31.6052 38.1993C31.6052 37.14 30.7523 36.2847 29.6959 36.2847ZM29.6959 38.9291C29.289 38.9291 28.9604 38.5995 28.9604 38.1915C28.9604 37.7835 29.289 37.4539 29.6959 37.4539C30.1028 37.4539 30.4315 37.7835 30.4315 38.1915C30.4315 38.5995 30.1028 38.9291 29.6959 38.9291Z" fill="#424242"/>
</g>
<defs>
<clipPath id="clip0_1081_2342">
<rect width="44" height="55" fill="white"/>
</clipPath>
</defs>
</svg>
