<svg width="77" height="54" viewBox="0 0 77 54" fill="none" xmlns="http://www.w3.org/2000/svg">
<g clip-path="url(#clip0_1099_2778)">
<path d="M10.4945 53.5577H5.60111C1.62298 53.5577 0 51.9113 0 47.8567V31.9823C0 27.94 1.62298 26.2812 5.60111 26.2812H9.70127C15.7905 26.2812 19.5734 29.4389 19.5734 34.5256V34.8696C19.5734 36.7618 19.012 38.3099 17.8894 39.4894C19.549 40.7427 20.4154 42.6471 20.4154 45.0922V45.3502C20.4154 48.4219 19.1219 53.57 10.4823 53.57L10.4945 53.5577ZM5.60111 28.7386C3.0019 28.7386 2.44057 29.3161 2.44057 31.9823V47.8567C2.44057 50.5229 3.0019 51.1004 5.60111 51.1004H10.4945C17.206 51.1004 17.987 47.8198 17.987 45.3379V45.0799C17.987 42.8929 17.1206 41.5413 15.2414 40.7918C14.8021 40.6198 14.5092 40.2021 14.4726 39.7352C14.436 39.2683 14.68 38.8137 15.0949 38.5802C16.4861 37.7939 17.145 36.6144 17.145 34.8696V34.5256C17.145 29.3038 11.9466 28.7386 9.71347 28.7386H5.61331H5.60111ZM10.8239 48.7413H7.73661C6.05262 48.7413 5.69873 47.6232 5.69873 46.6894V42.2171C5.69873 41.5413 6.24786 40.9884 6.91902 40.9884H10.8239C13.1913 40.9884 14.7166 42.426 14.7166 44.6499V45.0676C14.7166 47.2915 13.1913 48.729 10.8239 48.729V48.7413ZM8.1393 46.284H10.8239C12.1662 46.284 12.2761 45.6574 12.2761 45.0799V44.6621C12.2761 44.0847 12.1662 43.458 10.8239 43.458H8.1393V46.2963V46.284ZM9.98193 38.8382H6.91902C6.24786 38.8382 5.69873 38.2853 5.69873 37.6096V33.1372C5.69873 32.2034 6.05262 31.0853 7.73661 31.0853H9.98193C12.3859 31.0853 13.8746 32.4983 13.8746 34.7714V35.14C13.8746 37.3761 12.3493 38.826 9.98193 38.826V38.8382ZM8.1393 36.3809H9.98193C11.2632 36.3809 11.4341 35.7543 11.4341 35.1522V34.7836C11.4341 34.0464 11.19 33.555 9.98193 33.555H8.1393V36.3932V36.3809Z" fill="#424242"/>
<path d="M35.4128 53.5577H25.8335C21.8554 53.5577 20.2324 51.9113 20.2324 47.8567V31.9823C20.2324 27.94 21.8554 26.2812 25.8335 26.2812H35.1321C37.4262 26.2812 38.6221 28.1611 38.6221 30.0287C38.6221 32.1789 37.1822 33.6901 35.1321 33.6901H28.4327V36.0983H34.888C37.1822 36.0983 38.3903 37.9659 38.3903 39.8212C38.3903 41.5659 37.292 43.458 34.888 43.458H28.4327V46.1488H35.4128C37.4751 46.1488 38.915 47.6601 38.915 49.8103C38.915 51.6656 37.7191 53.5577 35.4128 53.5577ZM25.8335 28.7386C23.2343 28.7386 22.673 29.3161 22.673 31.9823V47.8567C22.673 50.5229 23.2343 51.1004 25.8335 51.1004H35.4128C36.3646 51.1004 36.4744 50.2034 36.4744 49.8103C36.4744 49.0116 36.1205 48.6062 35.4128 48.6062H28.0178C26.3338 48.6062 25.98 47.4881 25.98 46.5543V42.2294C25.98 41.5536 26.5291 41.0007 27.2003 41.0007H34.8758C35.5714 41.0007 35.9375 40.6075 35.9375 39.8212C35.9375 39.5263 35.8643 38.5557 34.8758 38.5557H27.2003C26.5291 38.5557 25.98 38.0028 25.98 37.327V33.2847C25.98 32.3509 26.3338 31.2328 28.0178 31.2328H35.1321C35.8277 31.2328 36.1816 30.8273 36.1816 30.0287C36.1816 29.6355 36.0839 28.7386 35.1321 28.7386H25.8335Z" fill="#424242"/>
<path d="M47.3228 54C44.748 54 41.319 53.3366 39.4886 51.8622C37.8046 50.4738 37.3897 48.2376 38.5001 46.5297C39.1591 45.5468 40.2818 44.957 41.4288 44.957C42.4661 44.957 43.2226 45.3748 43.7352 45.6574C43.845 45.7188 43.9426 45.768 44.0402 45.8171C44.6992 46.1243 45.7608 46.542 47.2252 46.542C48.4333 46.542 49.0556 46.1366 49.0678 45.3379C49.08 44.527 47.4082 43.9127 45.7974 43.3106L44.0646 42.6594C38.9028 40.7181 37.6093 35.914 38.6222 32.0069C39.6106 28.1366 43.0152 25.8267 47.7255 25.8267C50.1905 25.8267 52.2283 26.2567 53.7903 27.1045C55.7428 28.1734 56.719 30.2007 56.1455 32.0314C55.6573 33.5796 54.315 34.5011 52.57 34.5011C51.9477 34.5011 51.0569 34.2922 50.5321 33.8744C50.1905 33.6533 49.4705 33.2847 47.9329 33.2847C46.3954 33.2847 46.4076 33.985 46.3954 34.2553C46.3832 34.9802 47.9695 35.5331 49.6413 36.1229L49.2508 37.2901L49.6535 36.1352L51.0325 36.6144C55.3035 38.1133 57.5366 41.3447 57.3291 45.6942C57.0851 50.8915 53.351 54 47.3472 54H47.3228ZM41.4166 47.4144C41.0627 47.4144 40.7089 47.5987 40.5136 47.8936C40.0377 48.6308 40.4282 49.4785 41.0139 49.9577C42.161 50.8792 44.8212 51.5427 47.3228 51.5427C50.642 51.5427 54.6445 50.5106 54.8764 45.5837C55.0228 42.3154 53.4608 40.0792 50.2149 38.9366L48.8482 38.4574L49.2508 37.3024L48.836 38.4574C46.4198 37.6096 43.9182 36.725 43.9548 34.2308C43.9914 32.1789 45.5534 30.8519 47.9329 30.8519C49.5803 30.8519 50.8982 31.1959 51.9477 31.9086C52.0697 31.9823 52.3748 32.0683 52.5578 32.0683C53.5707 32.0683 53.7415 31.5154 53.8147 31.3188C54.0466 30.557 53.3754 29.697 52.6188 29.2915C51.423 28.6403 49.7756 28.3086 47.7255 28.3086C46.0293 28.3086 41.9901 28.7263 40.9895 32.6458C40.3062 35.2751 40.9285 38.8874 44.931 40.3864L46.6516 41.0376C48.958 41.8854 51.5572 42.856 51.5206 45.4116C51.4718 47.611 49.8 49.0239 47.2374 49.0239C45.773 49.0239 44.3941 48.7045 43.0152 48.0656C42.8688 48.0041 42.7345 47.9181 42.5881 47.8444C42.1976 47.6355 41.8681 47.4512 41.4532 47.4512L41.4166 47.4144Z" fill="#424242"/>
<path d="M69.2024 53.5576H63.3572C62.686 53.5576 62.1369 53.0047 62.1369 52.329V33.7023H59.0618C56.7677 33.7023 55.5718 31.8225 55.5718 29.9549C55.5718 27.8047 57.0117 26.2935 59.0618 26.2935H73.51C75.5723 26.2935 77 27.8047 77 29.9549C77 31.8225 75.8041 33.7023 73.51 33.7023H70.4349V52.329C70.4349 53.0047 69.8857 53.5576 69.2146 53.5576H69.2024ZM64.5775 51.1003H67.9821V32.4737C67.9821 31.7979 68.5312 31.245 69.2024 31.245H73.4978C74.4496 31.245 74.5472 30.3481 74.5472 29.9549C74.5472 29.1563 74.1933 28.7508 73.4978 28.7508H59.0496C58.354 28.7508 58.0001 29.1563 58.0001 29.9549C58.0001 30.3481 58.0978 31.245 59.0496 31.245H63.345C64.0162 31.245 64.5653 31.7979 64.5653 32.4737V51.1003H64.5775Z" fill="#424242"/>
<path d="M55.3167 3.67364L47.6899 8.66204C46.1645 9.66955 44.1022 9.1535 43.2236 7.54395L39.3675 0.479101C39.3309 0.417668 39.2699 0.405381 39.2211 0.343948C39.1967 0.319374 39.1723 0.307088 39.1479 0.282514C39.0136 0.159647 38.8916 0.0613538 38.733 0.0244937C38.6476 -7.96579e-05 38.5621 0.0244937 38.4767 0.012207C38.3913 0.012207 38.3059 0.012207 38.2205 0.0244937C38.0618 0.0613538 37.9276 0.159647 37.8056 0.282514C37.7812 0.307088 37.7568 0.319374 37.7323 0.343948C37.6835 0.393094 37.6225 0.405381 37.5859 0.479101L33.742 7.54395C32.8634 9.16579 30.8011 9.68183 29.2758 8.66204L21.649 3.67364C21.2951 3.44019 20.868 3.82108 21.0388 4.20197L27.7016 18.946C27.8602 19.3023 28.2141 19.5235 28.6046 19.5235H38.4523C38.4523 19.5235 38.4645 19.5235 38.4767 19.5235C38.4767 19.5235 38.4889 19.5235 38.5011 19.5235H48.3488C48.7393 19.5235 49.0932 19.29 49.2518 18.946L55.9146 4.20197C56.0854 3.82108 55.6583 3.45248 55.3045 3.67364H55.3167Z" fill="#F8B737"/>
</g>
<defs>
<clipPath id="clip0_1099_2778">
<rect width="77" height="54" fill="white"/>
</clipPath>
</defs>
</svg>
