<svg width="46" height="53" viewBox="0 0 46 53" fill="none" xmlns="http://www.w3.org/2000/svg">
<g clip-path="url(#clip0_1081_2616)">
<path d="M39.2999 37.8256C37.0994 33.7614 33.4797 30.7795 29.2549 29.3438C31.8844 27.5105 33.6008 24.4734 33.6008 21.0277C33.6008 15.4395 29.0789 10.9004 23.5118 10.9004C17.9447 10.9004 13.4228 15.4395 13.4228 21.0277C13.4228 24.4734 15.1502 27.5326 17.7907 29.3549C13.2688 30.89 9.42903 34.2032 7.31662 38.6428C6.98656 39.3276 7.27261 40.1559 7.96575 40.4872C8.15279 40.5755 8.36183 40.6197 8.55987 40.6197C9.07697 40.6197 9.56106 40.3326 9.80311 39.8356C11.9595 35.3186 16.2284 32.1711 21.0693 31.3649L22.6426 33.4632L20.5192 38.2121C20.3872 38.4993 20.4312 38.8306 20.6292 39.0736L22.9947 41.9781C23.1487 42.1659 23.3908 42.2763 23.6328 42.2763C23.8749 42.2763 24.1169 42.1659 24.2709 41.9781L26.6364 39.0736C26.8344 38.8306 26.8784 38.4993 26.7464 38.2121L24.612 33.4301L26.1413 31.3869C30.6632 32.1821 34.635 34.9983 36.8794 39.1398C37.2425 39.8135 38.0786 40.0565 38.7388 39.692C39.4099 39.3276 39.6519 38.4882 39.2889 37.8145L39.2999 37.8256ZM16.1734 21.0167C16.1734 16.9525 19.463 13.6503 23.5118 13.6503C27.5606 13.6503 30.8502 16.9525 30.8502 21.0167C30.8502 25.0808 27.5606 28.383 23.5118 28.383C19.463 28.383 16.1734 25.0808 16.1734 21.0167ZM23.6328 40.1448L22.2245 38.422L23.6328 35.2634L25.0411 38.422L23.6328 40.1448ZM23.6108 32.0165L22.9837 31.1771L23.5888 31.155C23.8088 31.155 24.0289 31.1661 24.2489 31.1771L23.6108 32.0275V32.0165Z" fill="#424242"/>
<path d="M36.5602 41.691C42.2703 37.4832 46 30.7243 46 23.0929C46 10.3592 35.68 0 22.9945 0C10.309 0 0 10.3592 0 23.0819C0 35.8045 10.32 46.1638 22.9945 46.1638C27.0763 46.1638 30.905 45.0815 34.2277 43.204L42.3803 52.5251C42.6553 52.8343 43.0294 52.989 43.4145 52.989C43.7336 52.989 44.0636 52.8785 44.3167 52.6466C44.8888 52.1386 44.9438 51.2661 44.4377 50.7029L36.5491 41.691H36.5602ZM2.75054 23.0819C2.75054 11.8833 11.8383 2.76099 22.9945 2.76099C34.1507 2.76099 43.2385 11.8833 43.2385 23.0819C43.2385 34.2805 34.1507 43.4028 22.9945 43.4028C11.8383 43.4028 2.75054 34.2915 2.75054 23.0819Z" fill="#F8C009"/>
</g>
<defs>
<clipPath id="clip0_1081_2616">
<rect width="46" height="53" fill="white"/>
</clipPath>
</defs>
</svg>
