<svg width="71" height="47" viewBox="0 0 71 47" fill="none" xmlns="http://www.w3.org/2000/svg">
<g clip-path="url(#clip0_1081_2360)">
<path d="M69.4907 8.23776C69.4907 8.23776 69.4815 8.2109 69.463 8.20194C69.463 8.20194 69.4445 8.20194 69.4445 8.18404C69.3056 8.02286 69.1574 7.86169 68.9907 7.71842C65.4445 4.55763 58.6204 6.32158 53.463 11.7388C52.4074 12.8491 51.5 14.04 50.7685 15.2667C49.75 9.06153 44.1944 4.30692 37.5 4.30692C36.963 4.30692 36.4167 4.34273 35.8519 4.41436C33.287 1.60278 29.6481 0 25.7593 0C21.8704 0 18.1759 1.62069 15.6111 4.486C14.8889 4.36959 14.1667 4.31587 13.463 4.31587C6.03704 4.30692 0 10.145 0 17.3262C0 23.7821 4.75926 29.1187 11.2222 30.1574V37.4997C11.2222 38.6906 12.2222 39.6576 13.4537 39.6576H32.8704L30.25 42.1917C29.3056 43.105 29.3056 44.5824 30.25 45.4957L31.1019 46.3195C31.5556 46.7582 32.1667 47 32.8148 47C33.463 47 34.0648 46.7582 34.5278 46.3195L50.1296 31.2319C50.5833 30.7931 50.8333 30.2021 50.8333 29.5753C50.8333 28.9486 50.5833 28.3665 50.1296 27.9278L49.2778 27.0951C48.6667 26.5041 47.8148 26.3071 47.0278 26.4772C47.7315 25.7967 48.3519 25.0356 48.8796 24.2119C49.1574 25.2147 49.6574 26.0833 50.3704 26.7906C50.3889 26.8085 50.3982 26.8354 50.4167 26.8623C50.4259 26.8712 50.4444 26.8802 50.463 26.8891C50.5093 26.9339 50.5463 26.9876 50.6019 27.0324C51.7593 28.0621 53.287 28.5814 55.0556 28.5814C55.9722 28.5814 56.963 28.4382 57.9907 28.1516C60.8333 27.3547 63.7222 25.5281 66.1296 23.012C71.0278 17.8724 72.3981 11.5687 69.5 8.23776H69.4907ZM67.6389 11.2642C66.9907 14.04 65.2963 17.0217 62.8426 19.6005C59.9815 22.6091 56.5185 24.6327 53.3796 25.2416L67.6389 11.2732V11.2642ZM51.8333 24.2029C52.3333 21.0511 54.4815 17.5142 57.7407 14.6041C60.4074 12.2223 63.5 10.5927 66.3611 9.9659L51.8241 24.2029H51.8333ZM54.8241 12.9566C57.8333 9.80472 61.6204 7.97809 64.5463 7.97809C65.1019 7.97809 65.6204 8.05868 66.1111 8.19299C62.8796 8.8735 59.4352 10.6643 56.4907 13.2879C53.5463 15.9114 51.4259 19.0543 50.4537 22.0718C50.4537 21.5346 50.5185 20.9615 50.6482 20.3616C51.1667 17.8724 52.6482 15.2399 54.8241 12.9566ZM47.5648 28.6531C47.5648 28.6531 47.6204 28.662 47.6389 28.6799L48.4907 29.5127C48.4907 29.5127 48.5278 29.6201 48.4907 29.647L32.8889 44.7346C32.8889 44.7346 32.7778 44.7704 32.75 44.7346L31.8981 43.9108C31.8981 43.9108 31.8611 43.8034 31.8981 43.7676L47.5 28.6799C47.5 28.6799 47.5463 28.6531 47.5741 28.6531H47.5648ZM40.287 32.4854V30.0499C41.7963 29.7455 43.2037 29.1903 44.4815 28.4382L40.287 32.4944V32.4854ZM38.9722 27.9905C38.3982 28.0621 37.963 28.5367 37.963 29.1008V34.7239L35.1759 37.4191H13.537V29.1724C13.537 28.5904 13.0741 28.1069 12.4815 28.0532C6.77778 27.5696 2.31482 22.8598 2.31482 17.3262C2.31482 11.3896 7.31482 6.55439 13.4537 6.55439C14.2315 6.55439 15.0278 6.63498 15.8148 6.80511C16.25 6.89465 16.6944 6.73347 16.9722 6.40217C19.1019 3.76072 22.3056 2.24748 25.75 2.24748C29.1944 2.24748 32.3333 3.73385 34.463 6.32158C34.7222 6.64393 35.1482 6.79615 35.5648 6.72452C36.25 6.60812 36.8796 6.55439 37.4815 6.55439C43.6204 6.55439 48.6204 11.3896 48.6204 17.3262C48.6204 22.6986 44.463 27.2831 38.963 27.9905H38.9722ZM64.7593 21.8032C62.5833 24.0865 59.9907 25.734 57.4722 26.4414C56.463 26.719 55.537 26.8264 54.6852 26.7817C57.9444 25.9042 61.3704 23.8 64.2037 20.8183C66.537 18.3648 68.2315 15.5532 69.1111 12.8223C69.037 15.5353 67.4907 18.9379 64.7593 21.8032Z" fill="#424242"/>
<path d="M18.6574 29.9692C17.037 29.9692 15.7222 31.2407 15.7222 32.8077C15.7222 34.3746 17.037 35.6461 18.6574 35.6461C20.2777 35.6461 21.5925 34.3746 21.5925 32.8077C21.5925 31.2407 20.2777 29.9692 18.6574 29.9692Z" fill="#F8C009"/>
</g>
<defs>
<clipPath id="clip0_1081_2360">
<rect width="71" height="47" fill="white"/>
</clipPath>
</defs>
</svg>
