<svg width="79" height="52" viewBox="0 0 79 52" fill="none" xmlns="http://www.w3.org/2000/svg">
<g clip-path="url(#clip0_1081_2206)">
<path d="M78.8249 50.5655L70.6036 39.7307H76.3909C76.995 39.7307 77.4853 39.2317 77.4853 38.6169C77.4853 38.0021 76.995 37.5031 76.3909 37.5031H72.486V34.5182C74.85 34.0371 77.1001 31.5868 77.1001 26.8287C77.1001 23.1844 74.2984 19.0412 72.8712 17.7314C72.1358 17.0631 71.0764 17.0631 70.3497 17.7314C68.9226 19.0412 66.1208 23.1844 66.1208 26.8287C66.1208 31.5868 68.3797 34.0371 70.7349 34.5182V37.5031H61.7957V35.7211C63.5205 35.2667 65.1052 33.449 65.1052 30.0364C65.1052 27.3722 63.0652 24.3428 62.0233 23.3894C61.3929 22.8102 60.4473 22.8102 59.8169 23.3894C58.775 24.3428 56.735 27.3722 56.735 30.0364C56.735 33.449 58.3198 35.2667 60.0446 35.7211V37.5031H41.6757C43.5932 36.1755 44.8627 33.9391 44.8627 31.4086C44.8627 28.6999 43.4093 26.3297 41.2642 25.0556V21.4291C41.2642 19.8698 40.7389 18.6046 39.7058 17.6779C37.6045 15.789 34.0761 16.0741 33.4982 16.1365H25.5921V6.35304H28.3763C28.9804 6.35304 29.4707 5.85407 29.4707 5.23926C29.4707 4.62446 28.9804 4.12549 28.3763 4.12549H8.92178C8.31766 4.12549 7.82736 4.62446 7.82736 5.23926V20.253C4.52657 21.7766 2.21515 25.1536 2.21515 29.0741C2.21515 32.6827 4.1676 35.828 7.04813 37.4942H2.60914C2.00502 37.4942 1.51471 37.9932 1.51471 38.608C1.51471 39.2228 2.00502 39.7218 2.60914 39.7218H8.39646L0.183892 50.5655C-0.113791 50.9576 -0.0437482 51.5189 0.34149 51.8129C0.499087 51.9377 0.691706 52.0001 0.875569 52.0001C1.13823 52.0001 1.40089 51.8842 1.56725 51.6526L10.6116 39.7307H17.4758L11.8461 50.6992C11.6184 51.1358 11.7848 51.6704 12.2138 51.902C12.3451 51.9733 12.4852 52.0001 12.6166 52.0001C12.9318 52.0001 13.2382 51.8219 13.3958 51.5189L19.4545 39.7218H27.0805L23.4558 50.4497C23.2982 50.913 23.5433 51.4209 23.9986 51.5813C24.0949 51.6169 24.1912 51.6258 24.2875 51.6258C24.6552 51.6258 24.988 51.3942 25.1193 51.0288L28.9366 39.7218H35.0917L33.507 50.6101C33.4369 51.1001 33.7696 51.5456 34.2424 51.6258C34.2862 51.6258 34.33 51.6347 34.3737 51.6347C34.8028 51.6347 35.1705 51.314 35.2405 50.8774L36.8603 39.7307H42.166L43.7858 50.8774C43.8471 51.3229 44.2236 51.6347 44.6526 51.6347C44.6964 51.6347 44.7401 51.6347 44.7839 51.6258C45.2655 51.5545 45.5894 51.1001 45.5194 50.6101L43.9346 39.7218H50.0897L53.907 51.0288C54.0296 51.3942 54.3711 51.6258 54.7388 51.6258C54.8351 51.6258 54.9314 51.608 55.0277 51.5813C55.483 51.4209 55.7282 50.913 55.5706 50.4497L51.9458 39.7218H59.5718L65.6305 51.5189C65.7881 51.8219 66.0946 52.0001 66.4098 52.0001C66.5498 52.0001 66.6812 51.9644 66.8125 51.902C67.2415 51.6704 67.4079 51.1358 67.1802 50.6992L61.5505 39.7307H68.4147L77.4591 51.6526C77.6342 51.8753 77.8881 52.0001 78.1508 52.0001C78.3346 52.0001 78.5272 51.9377 78.6848 51.8129C79.0701 51.51 79.1401 50.9487 78.8424 50.5655H78.8249ZM68.3097 26.8287C68.3097 24.0844 70.5336 20.7341 71.6105 19.5847C72.6874 20.7252 74.9113 24.0844 74.9113 26.8287C74.9113 30.1522 73.5804 32.3798 71.6105 32.3798C69.6405 32.3798 68.3097 30.1522 68.3097 26.8287ZM58.9239 30.0364C58.9239 28.3791 60.1496 26.3743 60.9201 25.4387C61.6906 26.3743 62.9164 28.3791 62.9164 30.0364C62.9164 32.1392 62.0933 33.6094 60.9201 33.6094C59.7469 33.6094 58.9239 32.1392 58.9239 30.0364ZM37.622 36.5408C34.8378 36.5408 32.5789 34.242 32.5789 31.4086C32.5789 28.5751 34.8465 26.2763 37.622 26.2763C40.3975 26.2763 42.6651 28.5751 42.6651 31.4086C42.6651 34.242 40.3975 36.5408 37.622 36.5408ZM23.4032 16.1275H13.6147V6.35304H23.4032V16.1275ZM11.4258 6.35304V16.1275H10.025V6.35304H11.4258ZM10.0162 18.3551H33.5507C33.5507 18.3551 33.6383 18.3551 33.6821 18.3551C34.5313 18.2482 37.0004 18.2304 38.2436 19.353C38.7952 19.8431 39.0579 20.5292 39.0579 21.438V24.2002C38.5938 24.1022 38.1035 24.0487 37.6132 24.0487C33.9973 24.0487 31.0029 26.7663 30.4688 30.2948H21.1618C21.2144 29.8938 21.2406 29.4929 21.2406 29.083C21.2406 23.7369 16.968 19.3976 11.7235 19.3976C11.1369 19.3976 10.5678 19.46 10.0075 19.5669V18.364L10.0162 18.3551ZM4.404 29.0741C4.404 24.9576 7.69603 21.6162 11.7323 21.6162C15.7685 21.6162 19.0605 24.9665 19.0605 29.0741C19.0605 33.1817 15.7685 36.5319 11.7323 36.5319C7.69603 36.5319 4.404 33.1817 4.404 29.0741ZM20.6278 32.5134H30.4776C30.784 34.5806 31.9397 36.3715 33.5682 37.4942H16.4252C18.3426 36.3894 19.831 34.6251 20.6278 32.5134Z" fill="#424242"/>
<path d="M11.9334 44.5066C12.0648 44.6402 12.2311 44.7026 12.3975 44.7026C12.5638 44.7026 12.7302 44.6402 12.8615 44.5066L14.1748 43.17C14.4287 42.9116 14.4287 42.4839 14.1748 42.2255C13.9209 41.9671 13.5006 41.9671 13.2467 42.2255L12.3975 43.0898L11.5482 42.2255C11.2943 41.9671 10.874 41.9671 10.6201 42.2255C10.3662 42.4839 10.3662 42.9116 10.6201 43.17L11.9334 44.5066Z" fill="#424242"/>
<path d="M9.97232 46.4401L9.12305 47.3044L8.27378 46.4401C8.01987 46.1817 7.59961 46.1817 7.3457 46.4401C7.0918 46.6985 7.0918 47.1262 7.3457 47.3846L8.65901 48.7212C8.79034 48.8548 8.9567 48.9172 9.12305 48.9172C9.2894 48.9172 9.45575 48.8548 9.58709 48.7212L10.9004 47.3846C11.1543 47.1262 11.1543 46.6985 10.9004 46.4401C10.6465 46.1817 10.2262 46.1817 9.97232 46.4401Z" fill="#424242"/>
<path d="M68.791 42.2165C68.5371 41.9581 68.1169 41.9581 67.8629 42.2165L67.0137 43.0808L66.1644 42.2165C65.9105 41.9581 65.4902 41.9581 65.2363 42.2165C64.9824 42.4749 64.9824 42.9026 65.2363 43.161L66.5496 44.4975C66.681 44.6312 66.8473 44.6935 67.0137 44.6935C67.18 44.6935 67.3464 44.6312 67.4777 44.4975L68.791 43.161C69.0449 42.9026 69.0449 42.4749 68.791 42.2165Z" fill="#424242"/>
<path d="M71.1466 46.4401L70.2974 47.3044L69.4481 46.4401C69.1942 46.1817 68.7739 46.1817 68.52 46.4401C68.2661 46.6985 68.2661 47.1262 68.52 47.3846L69.8333 48.7212C69.9647 48.8548 70.131 48.9172 70.2974 48.9172C70.4637 48.9172 70.6301 48.8548 70.7614 48.7212L72.0747 47.3846C72.3286 47.1262 72.3286 46.6985 72.0747 46.4401C71.8208 46.1817 71.4005 46.1817 71.1466 46.4401Z" fill="#424242"/>
<path d="M23.8062 41.9848C23.5523 41.7264 23.132 41.7264 22.8781 41.9848L22.0288 42.8491L21.1795 41.9848C20.9256 41.7264 20.5054 41.7264 20.2515 41.9848C19.9976 42.2432 19.9976 42.6709 20.2515 42.9293L21.5648 44.2658C21.6961 44.3995 21.8625 44.4619 22.0288 44.4619C22.1952 44.4619 22.3615 44.3995 22.4928 44.2658L23.8062 42.9293C24.0601 42.6709 24.0601 42.2432 23.8062 41.9848Z" fill="#424242"/>
<path d="M20.7243 47.1706L19.875 48.0349L19.0257 47.1706C18.7718 46.9122 18.3516 46.9122 18.0977 47.1706C17.8437 47.429 17.8437 47.8567 18.0977 48.1151L19.411 49.4516C19.5423 49.5853 19.7087 49.6476 19.875 49.6476C20.0414 49.6476 20.2077 49.5853 20.339 49.4516L21.6523 48.1151C21.9063 47.8567 21.9063 47.429 21.6523 47.1706C21.3984 46.9122 20.9782 46.9122 20.7243 47.1706Z" fill="#424242"/>
<path d="M58.5913 42.9293C58.8452 42.6709 58.8452 42.2432 58.5913 41.9848C58.3374 41.7264 57.9171 41.7264 57.6632 41.9848L56.814 42.8491L55.9647 41.9848C55.7108 41.7264 55.2905 41.7264 55.0366 41.9848C54.7827 42.2432 54.7827 42.6709 55.0366 42.9293L56.3499 44.2658C56.4813 44.3995 56.6476 44.4619 56.814 44.4619C56.9803 44.4619 57.1467 44.3995 57.278 44.2658L58.5913 42.9293Z" fill="#424242"/>
<path d="M59.8171 47.1706L58.9678 48.0349L58.1185 47.1706C57.8646 46.9122 57.4443 46.9122 57.1904 47.1706C56.9365 47.429 56.9365 47.8567 57.1904 48.1151L58.5037 49.4516C58.6351 49.5853 58.8014 49.6476 58.9678 49.6476C59.1341 49.6476 59.3005 49.5853 59.4318 49.4516L60.7451 48.1151C60.999 47.8567 60.999 47.429 60.7451 47.1706C60.4912 46.9122 60.071 46.9122 59.8171 47.1706Z" fill="#424242"/>
<path d="M31.9748 41.9848L31.1255 42.8491L30.2762 41.9848C30.0223 41.7264 29.6021 41.7264 29.3481 41.9848C29.0942 42.2432 29.0942 42.6709 29.3481 42.9293L30.6615 44.2658C30.7928 44.3995 30.9591 44.4619 31.1255 44.4619C31.2918 44.4619 31.4582 44.3995 31.5895 44.2658L32.9028 42.9293C33.1567 42.6709 33.1567 42.2432 32.9028 41.9848C32.6489 41.7264 32.2287 41.7264 31.9748 41.9848Z" fill="#424242"/>
<path d="M30.5475 47.1706L29.6982 48.0349L28.849 47.1706C28.5951 46.9122 28.1748 46.9122 27.9209 47.1706C27.667 47.429 27.667 47.8567 27.9209 48.1151L29.2342 49.4516C29.3655 49.5853 29.5319 49.6476 29.6982 49.6476C29.8646 49.6476 30.031 49.5853 30.1623 49.4516L31.4756 48.1151C31.7295 47.8567 31.7295 47.429 31.4756 47.1706C31.2217 46.9122 30.8014 46.9122 30.5475 47.1706Z" fill="#424242"/>
<path d="M47.7783 44.4619C47.9447 44.4619 48.111 44.3995 48.2424 44.2658L49.5557 42.9293C49.8096 42.6709 49.8096 42.2432 49.5557 41.9848C49.3018 41.7264 48.8815 41.7264 48.6276 41.9848L47.7783 42.8491L46.929 41.9848C46.6751 41.7264 46.2549 41.7264 46.001 41.9848C45.7471 42.2432 45.7471 42.6709 46.001 42.9293L47.3143 44.2658C47.4456 44.3995 47.612 44.4619 47.7783 44.4619Z" fill="#424242"/>
<path d="M50.0636 47.1706L49.2144 48.0349L48.3651 47.1706C48.1112 46.9122 47.6909 46.9122 47.437 47.1706C47.1831 47.429 47.1831 47.8567 47.437 48.1151L48.7503 49.4516C48.8817 49.5853 49.048 49.6476 49.2144 49.6476C49.3807 49.6476 49.5471 49.5853 49.6784 49.4516L50.9917 48.1151C51.2456 47.8567 51.2456 47.429 50.9917 47.1706C50.7378 46.9122 50.3175 46.9122 50.0636 47.1706Z" fill="#424242"/>
<path d="M40.3537 41.9848L39.5044 42.8491L38.6551 41.9848C38.4012 41.7264 37.981 41.7264 37.7271 41.9848C37.4731 42.2432 37.4731 42.6709 37.7271 42.9293L39.0404 44.2658C39.1717 44.3995 39.338 44.4619 39.5044 44.4619C39.6707 44.4619 39.8371 44.3995 39.9684 44.2658L41.2817 42.9293C41.5357 42.6709 41.5357 42.2432 41.2817 41.9848C41.0278 41.7264 40.6076 41.7264 40.3537 41.9848Z" fill="#424242"/>
<path d="M40.3537 46.9389L39.5044 47.8032L38.6551 46.9389C38.4012 46.6805 37.981 46.6805 37.7271 46.9389C37.4731 47.1973 37.4731 47.625 37.7271 47.8834L39.0404 49.2199C39.1717 49.3536 39.338 49.416 39.5044 49.416C39.6707 49.416 39.8371 49.3536 39.9684 49.2199L41.2817 47.8834C41.5357 47.625 41.5357 47.1973 41.2817 46.9389C41.0278 46.6805 40.6076 46.6805 40.3537 46.9389Z" fill="#424242"/>
<path d="M37.6221 27.6572C35.5908 27.6572 33.9448 29.3413 33.9448 31.3995C33.9448 33.4578 35.5996 35.1418 37.6221 35.1418C39.6446 35.1418 41.2994 33.4578 41.2994 31.3995C41.2994 29.3413 39.6446 27.6572 37.6221 27.6572ZM37.6221 32.9232C36.7991 32.9232 36.1337 32.246 36.1337 31.4084C36.1337 30.5709 36.7991 29.8937 37.6221 29.8937C38.4451 29.8937 39.1105 30.5709 39.1105 31.4084C39.1105 32.246 38.4451 32.9232 37.6221 32.9232Z" fill="#424242"/>
<path d="M16.3813 29.074C16.3813 26.4722 14.2975 24.3516 11.7409 24.3516C9.18437 24.3516 7.10059 26.4722 7.10059 29.074C7.10059 31.6758 9.18437 33.7964 11.7409 33.7964C14.2975 33.7964 16.3813 31.6758 16.3813 29.074ZM9.28068 29.074C9.28068 27.6929 10.3839 26.5791 11.7322 26.5791C13.0805 26.5791 14.1837 27.7018 14.1837 29.074C14.1837 30.4461 13.0805 31.5688 11.7322 31.5688C10.3839 31.5688 9.28068 30.4461 9.28068 29.074Z" fill="#424242"/>
<path d="M57.8293 9.46265C60.3969 9.46265 62.4784 7.34436 62.4784 4.73132C62.4784 2.11829 60.3969 0 57.8293 0C55.2617 0 53.1802 2.11829 53.1802 4.73132C53.1802 7.34436 55.2617 9.46265 57.8293 9.46265Z" fill="#F8B737"/>
</g>
<defs>
<clipPath id="clip0_1081_2206">
<rect width="79" height="52" fill="white"/>
</clipPath>
</defs>
</svg>
