<svg width="52" height="48" viewBox="0 0 52 48" fill="none" xmlns="http://www.w3.org/2000/svg">
<g clip-path="url(#clip0_1081_2568)">
<path d="M50.3147 6.25221L27.5811 0.210001C26.5482 -0.0638154 25.4518 -0.0638154 24.4189 0.210001L1.68531 6.25221C0.697682 6.5169 0 7.4205 0 8.461V46.4576H9.89441C10.3928 46.4576 10.8005 46.0469 10.8005 45.5449C10.8005 45.0429 10.3928 44.6321 9.89441 44.6321H7.71075V37.3304H44.2983V44.6321H42.1147C41.6163 44.6321 41.2086 45.0429 41.2086 45.5449C41.2086 46.0469 41.6163 46.4576 42.1147 46.4576H45.2044H52V8.461C52 7.42962 51.3114 6.52603 50.3147 6.25221ZM5.89859 43.5642L2.41018 41.6293L5.89859 39.6943V43.5734V43.5642ZM5.89859 23.6213L1.81216 25.894V21.1022L5.89859 23.3749V23.6213ZM1.81216 28.3583L5.89859 30.631V30.8774L1.81216 33.1501V28.3583ZM2.41018 27.1261L5.89859 25.1912V29.0702L2.41018 27.1353V27.1261ZM5.89859 21.805L2.41018 19.87L5.89859 17.935V21.8141V21.805ZM1.81216 35.6053L5.89859 37.878V38.1244L1.81216 40.3971V35.6053ZM5.89859 36.3172L2.41018 34.3823L5.89859 32.4473V36.3264V36.3172ZM5.89859 16.3652L1.81216 18.6378V13.8461L5.89859 16.1187V16.3652ZM5.89859 14.558L4.05018 13.5357H5.89859V14.558ZM1.81216 42.8615L5.00157 44.6321H1.81216V42.8615ZM7.71075 35.5049V13.5266H44.2983V35.5049H7.71075ZM50.1878 27.5369L46.1014 29.8095V25.0178L50.1878 27.2904V27.5369ZM50.1878 29.0976V32.9767L46.6994 31.0417L50.1878 29.1067V29.0976ZM46.1014 32.2739L50.1878 34.5466V34.793L46.1014 37.0657V32.2739ZM50.1878 25.7206L46.6994 23.7856L50.1878 21.8506V25.7297V25.7206ZM50.1878 20.2807L46.1014 22.5534V17.7616L50.1878 20.0343V20.2807ZM46.1014 39.5209L50.1878 41.7936V42.04L46.1014 44.3127V39.5209ZM46.6994 38.2887L50.1878 36.3538V40.2328L46.6994 38.2978V38.2887ZM50.1878 18.4735L46.6994 16.5386L50.1878 14.6036V18.4827V18.4735ZM49.2908 13.5266L46.1014 15.2973V13.5266H49.2908ZM48.3394 44.6321L50.1878 43.6099V44.6321H48.3394ZM44.2892 11.7012H7.70169H1.81216V8.461C1.81216 8.25107 1.94807 8.07766 2.14741 8.02289L24.881 1.97155C25.6149 1.77988 26.3851 1.77988 27.119 1.97155L49.8526 8.02289C50.0519 8.07766 50.1878 8.2602 50.1878 8.461V11.7012H44.2892Z" fill="#424242"/>
<path d="M38.0375 42.5146H36.2525V39.7582C36.2525 39.2562 35.8448 38.8455 35.3465 38.8455H16.6631C16.1647 38.8455 15.757 39.2562 15.757 39.7582V42.5146H13.972C13.4737 42.5146 13.0659 42.9253 13.0659 43.4273V47.0965C13.0659 47.5985 13.4737 48.0092 13.972 48.0092H38.0375C38.5359 48.0092 38.9436 47.5985 38.9436 47.0965V43.4273C38.9436 42.9253 38.5359 42.5146 38.0375 42.5146ZM17.5691 40.6709H34.4404V42.5146H17.5691V40.6709ZM37.1314 46.1746H14.8781V44.3309H37.1314V46.1746Z" fill="#424242"/>
<path d="M12.5493 15.1604C11.0452 15.1604 9.83105 15.8723 9.83105 16.7485C9.83105 17.6247 11.0452 18.3367 12.5493 18.3367C14.0534 18.3367 15.2675 17.6247 15.2675 16.7485C15.2675 15.8723 14.0534 15.1604 12.5493 15.1604Z" fill="#F8C009"/>
<path d="M21.5195 18.3367C23.0208 18.3367 24.2378 17.6256 24.2378 16.7485C24.2378 15.8714 23.0208 15.1604 21.5195 15.1604C20.0183 15.1604 18.8013 15.8714 18.8013 16.7485C18.8013 17.6256 20.0183 18.3367 21.5195 18.3367Z" fill="#F8C009"/>
<path d="M30.4805 18.3367C31.9817 18.3367 33.1987 17.6256 33.1987 16.7485C33.1987 15.8714 31.9817 15.1604 30.4805 15.1604C28.9792 15.1604 27.7622 15.8714 27.7622 16.7485C27.7622 17.6256 28.9792 18.3367 30.4805 18.3367Z" fill="#F8C009"/>
<path d="M39.4507 18.3367C40.9519 18.3367 42.1689 17.6256 42.1689 16.7485C42.1689 15.8714 40.9519 15.1604 39.4507 15.1604C37.9494 15.1604 36.7324 15.8714 36.7324 16.7485C36.7324 17.6256 37.9494 18.3367 39.4507 18.3367Z" fill="#F8C009"/>
</g>
<defs>
<clipPath id="clip0_1081_2568">
<rect width="52" height="48" fill="white"/>
</clipPath>
</defs>
</svg>
