<svg width="58" height="54" viewBox="0 0 58 54" fill="none" xmlns="http://www.w3.org/2000/svg">
<g clip-path="url(#clip0_1081_2589)">
<path d="M56.4245 21.2434H49.3599L38.6248 5.5708L45.0944 1.93119C45.5972 1.65058 45.7732 1.01509 45.4882 0.519908C45.2033 0.024722 44.558 -0.148593 44.0552 0.140265L6.55339 21.2434H1.58388C0.712325 21.2434 0 21.9449 0 22.8033V35.447C0 36.3053 0.712325 37.0068 1.58388 37.0068H4.75163V51.4745C4.75163 52.4566 5.56451 53.2654 6.57015 53.2654H8.37191C9.36917 53.2654 10.1904 52.4649 10.1904 51.4745V46.3493C10.1904 43.9312 10.6514 41.6946 11.5564 39.6891C12.2436 38.187 12.9895 37.2379 13.6683 37.0068H45.5469C46.2257 37.2379 46.9715 38.187 47.6587 39.6891C48.5638 41.6863 49.0247 43.9312 49.0247 46.3493V51.4745C49.0247 52.4566 49.8376 53.2654 50.8432 53.2654H52.645C53.6423 53.2654 54.4635 52.4649 54.4635 51.4745V37.0068H56.4413C57.3128 37.0068 58.0251 36.3053 58.0251 35.447V22.8033C58.0251 21.9449 57.3128 21.2434 56.4413 21.2434H56.4245ZM36.8062 6.59419L46.8375 21.2434H10.7771L36.8062 6.59419ZM9.63734 38.8473C8.60656 41.1169 8.08698 43.6423 8.08698 46.3493V51.2022H6.8467V37.0068H10.6597C10.2994 37.5268 9.95579 38.1375 9.63734 38.8473ZM52.3433 51.1939H51.103V46.3411C51.103 43.6341 50.5834 41.1086 49.5527 38.839C49.2258 38.1293 48.8906 37.5185 48.5303 36.9986H52.3433V51.1939ZM55.9049 34.9353H53.6925C53.592 34.9023 53.4998 34.8775 53.3908 34.8775H45.2117C45.1027 34.8775 45.0022 34.9106 44.91 34.9353H14.28C14.1795 34.9023 14.0873 34.8775 13.9783 34.8775H5.79916C5.69022 34.8775 5.58965 34.9106 5.49747 34.9353H2.09507V23.3067H55.9049V34.9353Z" fill="#424242"/>
<path d="M3.13428 28.5227V32.1293C3.13428 32.9877 3.8466 33.6892 4.71815 33.6892H53.2903C54.1619 33.6892 54.8742 32.9877 54.8742 32.1293V28.5227C54.8742 27.6644 54.1619 26.9629 53.2903 26.9629H4.71815C3.8466 26.9629 3.13428 27.6644 3.13428 28.5227ZM5.22935 29.0344H52.7707V31.6341H50.1142V30.3384C50.1142 29.8845 49.7371 29.5131 49.2762 29.5131C48.8152 29.5131 48.4381 29.8845 48.4381 30.3384V31.6341H46.5358V30.3384C46.5358 29.8845 46.1587 29.5131 45.6978 29.5131C45.2369 29.5131 44.8597 29.8845 44.8597 30.3384V31.6341H42.9574V30.3384C42.9574 29.8845 42.5803 29.5131 42.1194 29.5131C41.6585 29.5131 41.2814 29.8845 41.2814 30.3384V31.6341H39.379V30.3384C39.379 29.8845 39.0019 29.5131 38.541 29.5131C38.0801 29.5131 37.703 29.8845 37.703 30.3384V31.6341H35.8007V30.3384C35.8007 29.8845 35.4235 29.5131 34.9626 29.5131C34.5017 29.5131 34.1246 29.8845 34.1246 30.3384V31.6341H32.2223V30.3384C32.2223 29.8845 31.8452 29.5131 31.3842 29.5131C30.9233 29.5131 30.5462 29.8845 30.5462 30.3384V31.6341H28.6439V30.3384C28.6439 29.8845 28.2668 29.5131 27.8059 29.5131C27.3449 29.5131 26.9678 29.8845 26.9678 30.3384V31.6341H25.0655V30.3384C25.0655 29.8845 24.6884 29.5131 24.2275 29.5131C23.7666 29.5131 23.3894 29.8845 23.3894 30.3384V31.6341H21.4871V30.3384C21.4871 29.8845 21.11 29.5131 20.6491 29.5131C20.1882 29.5131 19.8111 29.8845 19.8111 30.3384V31.6341H17.9087V30.3384C17.9087 29.8845 17.5316 29.5131 17.0707 29.5131C16.6098 29.5131 16.2327 29.8845 16.2327 30.3384V31.6341H14.3303V30.3384C14.3303 29.8845 13.9532 29.5131 13.4923 29.5131C13.0314 29.5131 12.6543 29.8845 12.6543 30.3384V31.6341H10.752V30.3384C10.752 29.8845 10.3748 29.5131 9.91393 29.5131C9.45302 29.5131 9.0759 29.8845 9.0759 30.3384V31.6341H5.22935V29.0344Z" fill="#424242"/>
<path d="M35.4485 48.5943H30.4623V46.1678C30.4623 45.7139 30.0852 45.3425 29.6242 45.3425C29.1633 45.3425 28.7862 45.7139 28.7862 46.1678V48.5943H23.7999C23.339 48.5943 22.9619 48.9656 22.9619 49.4196C22.9619 49.4278 22.9619 49.4361 22.9619 49.4526C22.9619 49.4608 22.9619 49.4691 22.9619 49.4856V53.1912C22.9619 53.6451 23.339 54.0165 23.7999 54.0165C24.2609 54.0165 24.638 53.6451 24.638 53.1912V50.2531H28.7862V53.1912C28.7862 53.6451 29.1633 54.0165 29.6242 54.0165C30.0852 54.0165 30.4623 53.6451 30.4623 53.1912V50.2531H34.6105V53.1912C34.6105 53.6451 34.9876 54.0165 35.4485 54.0165C35.9095 54.0165 36.2866 53.6451 36.2866 53.1912V49.4856C36.2866 49.4856 36.2866 49.4691 36.2866 49.4526C36.2866 49.4443 36.2866 49.4361 36.2866 49.4196C36.2866 48.9656 35.9095 48.5943 35.4485 48.5943Z" fill="#424242"/>
<path d="M35.1972 39.4084H24.0514C23.0193 39.4084 22.1826 40.2324 22.1826 41.2489V42.4621C22.1826 43.4785 23.0193 44.3025 24.0514 44.3025H35.1972C36.2293 44.3025 37.066 43.4785 37.066 42.4621V41.2489C37.066 40.2324 36.2293 39.4084 35.1972 39.4084Z" fill="#F8C009"/>
</g>
<defs>
<clipPath id="clip0_1081_2589">
<rect width="58" height="54" fill="white"/>
</clipPath>
</defs>
</svg>
