<svg width="55" height="51" viewBox="0 0 55 51" fill="none" xmlns="http://www.w3.org/2000/svg">
<g clip-path="url(#clip0_1081_2285)">
<path d="M54.4506 7.45806L51.233 4.26175C50.4973 3.53091 49.3007 3.53091 48.5562 4.26175C48.4941 4.32339 48.4409 4.39383 48.3966 4.46427L47.7762 5.46807C46.8986 5.25674 45.9148 5.46807 45.25 6.12846L33.0799 18.2181C32.5836 18.7112 32.3088 19.3716 32.3088 20.076C32.3088 20.3842 32.3708 20.6747 32.4683 20.9565L31.7681 21.6521C30.9172 22.4974 30.9172 23.8622 31.7681 24.7075L33.8777 26.8032C34.2854 27.2082 34.835 27.4372 35.4111 27.4372C35.9873 27.4372 36.5368 27.2082 36.9446 26.8032L37.6448 26.1076C37.9285 26.2044 38.2298 26.2661 38.5312 26.2661C39.2403 26.2661 39.9051 25.9931 40.4015 25.5L46.1452 19.7942L46.7745 20.4194C47.2 20.842 47.7584 21.071 48.3612 21.071C48.8398 21.071 49.283 20.9213 49.6641 20.6483C51.2419 22.4886 51.9333 24.9277 51.5965 27.6045C51.2153 30.6247 49.5844 33.6977 47.005 36.26C44.4611 38.7871 41.0751 40.1784 37.4764 40.1784C33.8777 40.1784 30.4917 38.7871 27.9478 36.26L27.416 35.7317L29.4635 33.6977L31.121 35.3443C31.3338 35.5556 31.6174 35.6701 31.9011 35.6701C32.1847 35.6701 32.4683 35.5644 32.6811 35.3443C33.1154 34.9128 33.1154 34.2172 32.6811 33.7857L30.2435 31.3643L27.1589 28.3001L24.7214 25.8786C24.287 25.4472 23.5868 25.4472 23.1525 25.8786C22.7181 26.3101 22.7181 27.0057 23.1525 27.4372L24.81 29.0837L21.2999 32.5706C20.8479 33.0197 20.5908 33.6273 20.5908 34.27C20.5908 34.9128 20.839 35.5116 21.2999 35.9695L22.5409 37.2022C22.9929 37.6513 23.6045 37.9066 24.2516 37.9066C24.8455 37.9066 25.4039 37.6865 25.8471 37.299L26.3878 37.8362C28.781 40.2136 31.8036 41.7017 35.0832 42.2036V43.7621H34.507C32.3797 43.7621 30.5183 45.2678 30.0751 47.337L29.5699 49.7144C29.499 50.0402 29.5876 50.3748 29.7915 50.6302C29.9953 50.8855 30.3144 51.0352 30.6513 51.0352H47.9534C48.2903 51.0352 48.6005 50.8855 48.8132 50.6302C49.026 50.3748 49.1057 50.0314 49.0348 49.7144L48.5296 47.337C48.0953 45.2678 46.2339 43.7621 44.0977 43.7621H43.5215V41.1998C45.3829 40.4249 47.0848 39.2978 48.5562 37.8362C51.4812 34.9304 53.3426 31.3995 53.7858 27.895C54.2113 24.5314 53.2895 21.4408 51.2242 19.1162C51.8712 18.2445 51.8092 17.0118 51.0114 16.2193L50.3821 15.5941L52.5538 13.4368C53.0501 12.9437 53.3249 12.2833 53.3249 11.5789C53.3249 11.35 53.2895 11.1298 53.2274 10.9185L54.2201 10.311C54.2911 10.2669 54.362 10.2141 54.424 10.1525C55.1597 9.42163 55.1597 8.23292 54.424 7.49328L54.4506 7.45806ZM24.1186 35.6172L22.8777 34.3845C22.8334 34.3405 22.8245 34.2788 22.8245 34.2436C22.8245 34.2084 22.8334 34.1556 22.8865 34.1027L26.3966 30.6159L27.9123 32.1216L25.2 34.816C25.2 34.816 25.1025 34.8688 25.0671 34.904C25.0316 34.9392 25.0139 34.9921 24.9784 35.0361L24.4111 35.5996C24.3136 35.6965 24.225 35.6965 24.1275 35.5996L24.1186 35.6172ZM46.3934 47.7509L46.615 48.8075H32.034L32.2556 47.7509C32.4772 46.6942 33.4256 45.9282 34.5159 45.9282H44.1331C45.2234 45.9282 46.1718 46.6942 46.3934 47.7509ZM41.7842 43.7269H36.8648V42.3356C37.0775 42.3356 37.2814 42.3621 37.4941 42.3621C38.9655 42.3621 40.4103 42.1507 41.7842 41.7633V43.7181V43.7269ZM49.9655 6.11966L52.5715 8.7084L51.9687 9.07822L49.5932 6.71841L49.9655 6.11966ZM35.4466 25.227L33.3724 23.1666L33.86 22.6823L35.9252 24.734L35.4466 25.227ZM49.478 17.769L48.3612 18.8432L47.7318 18.2181L48.8398 17.1174L49.4869 17.7778L49.478 17.769ZM51.0114 11.8343L38.8414 23.9239C38.7351 24.0295 38.6021 24.0471 38.5401 24.0471C38.478 24.0471 38.3451 24.0295 38.2387 23.9239L34.6488 20.3577C34.5425 20.2521 34.5247 20.12 34.5247 20.0584C34.5247 19.9967 34.5425 19.8647 34.6488 19.759L46.8189 7.66938C46.9252 7.56372 47.0582 7.54611 47.1202 7.54611C47.1823 7.54611 47.3152 7.56372 47.4216 7.66938L51.0114 11.2355C51.1178 11.3412 51.1355 11.4732 51.1355 11.5349C51.1355 11.5965 51.1178 11.7286 51.0114 11.8343Z" fill="#424242"/>
<path d="M19.7311 35.6788C19.2967 35.2474 18.5965 35.2474 18.1622 35.6788C17.7278 36.1103 17.7278 36.8059 18.1622 37.2373L21.2468 40.3016C21.4595 40.5129 21.7432 40.6274 22.0268 40.6274C22.3104 40.6274 22.5941 40.5217 22.8068 40.3016C23.2411 39.8701 23.2411 39.1745 22.8068 38.743L19.7222 35.6788H19.7311Z" fill="#424242"/>
<path d="M45.2322 10.7512C44.8865 10.4078 44.3281 10.4078 43.9824 10.7512C43.6367 11.0946 43.6367 11.6493 43.9824 11.9927L46.6682 14.6607C46.8454 14.8368 47.067 14.9161 47.2975 14.9161C47.5279 14.9161 47.7495 14.828 47.9268 14.6607C48.2725 14.3173 48.2725 13.7626 47.9268 13.4192L45.2411 10.7512H45.2322Z" fill="#424242"/>
<path d="M12.0812 25.5264C12.2053 25.5264 12.3294 25.544 12.4624 25.544C12.6042 25.544 12.746 25.544 12.8878 25.5616C13.1272 25.5616 13.3754 25.588 13.6147 25.588C13.7831 25.588 13.9338 25.5792 14.0933 25.5704C14.2617 25.5704 14.4301 25.5616 14.5986 25.5528C15.0063 25.5352 15.4052 25.5 15.7952 25.4472C15.8927 25.4384 15.999 25.4295 16.0965 25.4119C17.107 25.2711 18.0289 25.0245 18.8621 24.6987C18.8975 24.6811 18.933 24.6723 18.9596 24.6547C19.3407 24.4962 19.7041 24.3201 20.0409 24.1264C20.0764 24.1088 20.1207 24.0823 20.1562 24.0647C20.5019 23.8622 20.8298 23.6333 21.1312 23.3867C21.1489 23.3779 21.1578 23.3691 21.1755 23.3515C21.4769 23.0962 21.7517 22.832 21.9999 22.5414C21.9999 22.5414 22.0353 22.4974 22.053 22.4798C22.3012 22.198 22.514 21.881 22.709 21.5552C22.7267 21.5288 22.7444 21.5112 22.7533 21.4848C22.8596 21.2999 22.9394 21.0886 23.0369 20.886C23.1256 20.7011 23.2231 20.5338 23.294 20.3401C23.356 20.1816 23.3915 20.0055 23.4358 19.8382C23.5156 19.5829 23.6042 19.3363 23.6574 19.0634C23.684 18.9225 23.7017 18.764 23.7194 18.6143C23.7726 18.2973 23.8258 17.9891 23.8524 17.6545C23.8613 17.5136 23.8524 17.3551 23.8613 17.2143C23.879 16.862 23.8967 16.5098 23.8878 16.1312C23.8878 15.9815 23.8613 15.8318 23.8524 15.6821C23.8258 15.2947 23.8081 14.9073 23.7549 14.5022C23.7372 14.3437 23.6928 14.1764 23.6663 14.0179C23.6042 13.6129 23.5422 13.1991 23.4447 12.7764C23.4092 12.6091 23.3472 12.4242 23.3117 12.2481C27.9032 12.6179 31.165 11.7198 32.9999 9.54488L32.3528 8.93732L31.6348 8.41781C29.7734 10.6279 25.9177 10.7688 22.8242 10.443C22.0619 7.75741 21.5744 4.39381 22.8685 2.14847L26.9547 5.56491C27.1231 5.70579 27.327 5.77623 27.522 5.77623C27.7702 5.77623 28.0272 5.67057 28.2045 5.45924C28.5236 5.08942 28.4704 4.53469 28.0982 4.2177L23.2674 0.211315C22.8951 -0.105674 22.3367 -0.0528427 22.0176 0.316978C22.0176 0.316978 22.0176 0.334588 22.0087 0.343393C22.0087 0.343393 21.991 0.352199 21.991 0.361004C20.1473 2.51829 19.8105 5.87309 20.9539 10.3021C20.7766 10.2933 20.5816 10.2669 20.4044 10.2581C20.0853 10.2405 19.7928 10.2581 19.4825 10.2581C19.1989 10.2581 18.9064 10.2493 18.6316 10.2581C18.4277 10.2581 18.2327 10.2933 18.0377 10.3109C17.6832 10.3374 17.3198 10.355 16.9918 10.4078C16.8943 10.4254 16.8057 10.4518 16.7082 10.4606C16.2916 10.5311 15.875 10.6015 15.4849 10.6984H15.4672C13.5704 11.1915 12.0546 12.072 10.991 13.3311C10.273 14.1764 9.76778 15.2243 9.47527 16.4218C9.44868 16.5274 9.40436 16.6243 9.38664 16.73C9.32459 17.0029 9.298 17.2935 9.26254 17.5753C9.23595 17.7602 9.20049 17.9363 9.18277 18.13C9.16504 18.3765 9.1739 18.6407 9.16504 18.8872C9.16504 19.1426 9.13845 19.3891 9.14731 19.6445C9.14731 19.8734 9.19163 20.12 9.20936 20.3577C9.23595 20.6659 9.24481 20.9565 9.28913 21.2735C9.31572 21.5024 9.37777 21.749 9.41323 21.9867C9.46641 22.3213 9.51959 22.6559 9.5905 22.9993C9.62596 23.1754 9.688 23.3515 9.73232 23.5276C5.14087 23.1578 1.87012 24.0559 0.0175781 26.266L0.691228 26.8296L1.4092 27.3491C3.2706 25.139 7.12636 24.9981 10.2198 25.3239C11.0619 28.3001 11.5849 32.1039 9.67028 34.3405C9.35118 34.7103 9.42209 35.2474 9.79437 35.5556C9.95392 35.6877 10.1578 35.7581 10.3528 35.7581C10.6187 35.7581 10.8846 35.6436 11.0619 35.4323C12.9056 33.275 13.2424 29.929 12.099 25.5L12.0812 25.5264ZM10.9289 18.3942C10.9467 18.174 10.9733 17.9715 11.0087 17.7602C11.0353 17.5841 11.053 17.3992 11.0885 17.2319C11.1239 17.0293 11.186 16.8532 11.2392 16.6683C11.2835 16.5098 11.3189 16.3425 11.3721 16.1928C11.4342 16.0079 11.5228 15.8494 11.6026 15.6821C11.6646 15.5413 11.7178 15.4004 11.7976 15.2683C11.904 15.0834 12.0281 14.9249 12.1521 14.7664C12.2231 14.6695 12.2762 14.5727 12.356 14.4846C12.356 14.4846 12.4181 14.4142 12.4181 14.4054C12.4712 14.3349 12.551 14.2821 12.6131 14.2205C12.7726 14.0532 12.9233 13.8859 13.1094 13.7362C13.2158 13.6481 13.3488 13.5689 13.464 13.4896C13.6235 13.3752 13.7742 13.2607 13.9515 13.1638C14.0845 13.0934 14.2263 13.0318 14.3681 12.9613C14.5542 12.8733 14.7404 12.7764 14.9443 12.6972C15.0861 12.6443 15.2368 12.6003 15.3874 12.5563C15.6179 12.4858 15.8395 12.4066 16.0877 12.3538C16.2295 12.3185 16.3891 12.2921 16.5397 12.2657C16.8057 12.2129 17.0716 12.16 17.3641 12.1248C17.5148 12.1072 17.6743 12.0984 17.8339 12.0808C18.1352 12.0544 18.4366 12.028 18.7646 12.0103C18.933 12.0103 19.1102 12.0103 19.2787 12.0103C19.5978 12.0103 19.9169 12.0103 20.2537 12.028C20.4575 12.028 20.6703 12.0544 20.883 12.072C21.0691 12.0896 21.2642 12.1072 21.4592 12.1248C21.5123 12.3009 21.5567 12.4858 21.601 12.6531C21.6542 12.8733 21.7073 13.0934 21.7605 13.3135C21.8226 13.6041 21.8758 13.8859 21.9201 14.1676C21.9555 14.379 21.991 14.5815 22.0176 14.784C22.053 15.057 22.0796 15.3211 22.0974 15.5765C22.1151 15.7702 22.1328 15.9727 22.1417 16.1576C22.1505 16.413 22.1417 16.6507 22.1417 16.8885C22.1417 17.0734 22.1417 17.2583 22.1239 17.4344C22.1062 17.6633 22.0708 17.8834 22.0442 18.1036C22.0176 18.2709 22.0087 18.4382 21.9733 18.5967C21.9289 18.808 21.8669 19.0105 21.8137 19.213C21.7694 19.3539 21.7428 19.5124 21.6896 19.6445C21.6187 19.847 21.5212 20.0319 21.4326 20.2168C21.3794 20.3313 21.3351 20.4546 21.273 20.5691C21.1401 20.798 20.9894 21.0005 20.8387 21.1942C20.7944 21.2471 20.7678 21.3087 20.7235 21.3527L20.688 21.3879L20.6525 21.4232C20.6171 21.4672 20.5728 21.5024 20.5373 21.5376C20.36 21.7313 20.1739 21.9251 19.9612 22.1012C19.8725 22.1716 19.7662 22.2332 19.6775 22.2949C19.5003 22.427 19.3141 22.559 19.1191 22.6735C19.0039 22.7351 18.8709 22.788 18.7557 22.8496C18.5518 22.9465 18.348 23.0521 18.1264 23.1314C17.9934 23.1842 17.8427 23.2194 17.7009 23.2635C17.4704 23.3339 17.24 23.4131 16.9918 23.4748C16.8411 23.51 16.6727 23.5364 16.5131 23.5716C16.2561 23.6245 15.999 23.6685 15.7243 23.7037C15.5559 23.7301 15.3697 23.7389 15.1924 23.7565C14.9177 23.783 14.634 23.8094 14.3415 23.8182C14.1465 23.8182 13.9426 23.8182 13.7476 23.8182C13.4551 23.8182 13.1626 23.8182 12.8524 23.8094C12.6308 23.8006 12.4003 23.783 12.161 23.7654C11.9837 23.7565 11.7976 23.7389 11.6203 23.7213C11.576 23.554 11.5228 23.3779 11.4874 23.2106C11.4253 22.9817 11.3721 22.7439 11.3189 22.515C11.2569 22.2332 11.2126 21.9691 11.1683 21.6961C11.1328 21.476 11.0885 21.2559 11.0619 21.0445C11.0264 20.7804 11.0087 20.5338 10.9821 20.2873C10.9644 20.0848 10.9467 19.8734 10.9378 19.6709C10.9289 19.4332 10.9378 19.2042 10.9378 18.9753C10.9378 18.7816 10.9378 18.5879 10.9555 18.403L10.9289 18.3942Z" fill="#424242"/>
<path d="M8.82837 22.7881C7.97744 18.5968 8.53587 15.1275 10.4593 12.8822L10.5036 12.8293C12.4005 10.5664 15.751 9.4305 20.05 9.55378C19.9347 9.01665 19.8284 8.48834 19.7575 7.97764C15.1128 7.916 11.4609 9.24559 9.29815 11.8167L9.25383 11.8696C7.06447 14.4319 6.36423 18.2358 7.21516 22.7705C7.72926 22.7528 8.26995 22.7705 8.82837 22.7881Z" fill="#F8B737"/>
<path d="M12.9765 26.2574C13.9072 30.4751 13.4375 33.7154 11.5672 35.8991L11.5317 35.9343L12.7372 36.9469L12.7638 36.9117C14.9177 34.3934 15.5205 30.8097 14.5809 26.2397C14.0579 26.2662 13.5261 26.2662 12.9677 26.2486L12.9765 26.2574Z" fill="#F8B737"/>
<path d="M24.1983 13.023C24.3047 13.5601 24.3933 14.0884 24.4554 14.5991C29.1532 14.7488 32.6012 13.5425 34.7285 11.0066L34.7551 10.9713L33.5496 9.95874L33.5142 9.99396C31.6617 12.1953 28.5327 13.1991 24.1895 13.0054L24.1983 13.023Z" fill="#F8B737"/>
</g>
<defs>
<clipPath id="clip0_1081_2285">
<rect width="55" height="51" fill="white"/>
</clipPath>
</defs>
</svg>
