<svg width="52" height="53" viewBox="0 0 52 53" fill="none" xmlns="http://www.w3.org/2000/svg">
<g clip-path="url(#clip0_1081_2678)">
<path d="M10.0868 39.2444C7.33101 39.2444 5.05252 37.1412 4.80936 34.4563C2.1166 34.2147 -0.00878906 31.9593 -0.00878906 29.2118C-0.00878906 26.4642 2.1076 24.2179 4.80936 23.9673C5.05252 21.2913 7.322 19.1792 10.0868 19.1792C12.8516 19.1792 15.1121 21.2824 15.3643 23.9673C18.057 24.2089 20.1824 26.4642 20.1824 29.2118C20.1824 31.9593 18.066 34.2147 15.3643 34.4563C15.1211 37.1323 12.8516 39.2444 10.0868 39.2444ZM5.73697 32.6485C5.97112 32.6485 6.20527 32.738 6.37639 32.908C6.56551 33.0959 6.66457 33.3644 6.63756 33.6329L6.61954 33.8119C6.61954 33.8656 6.60153 33.9283 6.60153 33.982C6.60153 35.8972 8.16856 37.4544 10.0958 37.4544C12.0231 37.4544 13.5901 35.8972 13.5901 33.982C13.5901 33.9193 13.5811 33.8656 13.5721 33.803L13.5541 33.6329C13.5271 33.3644 13.6261 33.0959 13.8153 32.908C14.0044 32.7201 14.2746 32.6216 14.5447 32.6485L14.7158 32.6664C14.7789 32.6664 14.8329 32.6843 14.896 32.6843C16.8232 32.6843 18.3902 31.127 18.3902 29.2118C18.3902 27.2966 16.8232 25.7393 14.896 25.7393C14.8329 25.7393 14.7789 25.7483 14.7158 25.7572L14.5447 25.7751C14.2746 25.802 14.0044 25.7035 13.8153 25.5156C13.6261 25.3276 13.5271 25.0591 13.5541 24.7906L13.5721 24.6206C13.5721 24.5669 13.5901 24.5043 13.5901 24.4416C13.5901 22.5264 12.0231 20.9691 10.0958 20.9691C8.16856 20.9691 6.60153 22.5264 6.60153 24.4416C6.60153 24.5043 6.61054 24.558 6.61954 24.6117L6.63756 24.7906C6.66457 25.0591 6.56551 25.3276 6.37639 25.5156C6.18726 25.7035 5.91709 25.802 5.64691 25.7751L5.4758 25.7572C5.42176 25.7572 5.35872 25.7393 5.29568 25.7393C3.36842 25.7393 1.80139 27.2966 1.80139 29.2118C1.80139 31.127 3.36842 32.6843 5.29568 32.6843C5.35872 32.6843 5.41276 32.6753 5.4758 32.6664L5.64691 32.6485C5.64691 32.6485 5.70995 32.6485 5.73697 32.6485Z" fill="#424242"/>
<path d="M10.0868 33.1675C7.8984 33.1675 6.11523 31.3955 6.11523 29.2207C6.11523 27.046 7.8984 25.2739 10.0868 25.2739C12.2753 25.2739 14.0584 27.046 14.0584 29.2207C14.0584 31.3955 12.2753 33.1675 10.0868 33.1675ZM10.0868 27.5113C9.13221 27.5113 8.36671 28.281 8.36671 29.2207C8.36671 30.1605 9.14121 30.9301 10.0868 30.9301C11.0324 30.9301 11.807 30.1605 11.807 29.2207C11.807 28.281 11.0324 27.5113 10.0868 27.5113Z" fill="#F8B737"/>
<path d="M38.8155 13.7199H34.0153C33.52 13.7199 33.1147 13.3171 33.1147 12.8249C33.1147 12.3327 33.52 11.9299 34.0153 11.9299H38.8155C39.3108 11.9299 39.7161 12.3327 39.7161 12.8249C39.7161 13.3171 39.3108 13.7199 38.8155 13.7199Z" fill="#424242"/>
<path d="M19.6148 13.7199H14.8147C14.3193 13.7199 13.9141 13.3171 13.9141 12.8249C13.9141 12.3327 14.3193 11.9299 14.8147 11.9299H19.6148C20.1101 11.9299 20.5154 12.3327 20.5154 12.8249C20.5154 13.3171 20.1101 13.7199 19.6148 13.7199Z" fill="#424242"/>
<path d="M31.3945 9.06609C31.1604 9.06609 30.9352 8.9766 30.7551 8.80655C30.4039 8.45751 30.4039 7.89368 30.7551 7.54465L33.5289 4.78815C33.8802 4.43911 34.4475 4.43911 34.7988 4.78815C35.15 5.13718 35.15 5.70101 34.7988 6.05005L32.025 8.80655C31.8448 8.98555 31.6197 9.06609 31.3855 9.06609H31.3945Z" fill="#424242"/>
<path d="M19.2725 21.1125C19.0383 21.1125 18.8132 21.023 18.6331 20.8529C18.2818 20.5039 18.2818 19.9401 18.6331 19.591L21.4069 16.8345C21.7581 16.4855 22.3255 16.4855 22.6767 16.8345C23.0279 17.1836 23.0279 17.7474 22.6767 18.0964L19.9029 20.8529C19.7228 21.0319 19.4976 21.1125 19.2635 21.1125H19.2725Z" fill="#424242"/>
<path d="M34.1684 21.1125C33.9342 21.1125 33.7091 21.023 33.5289 20.8529L30.7551 18.0964C30.4039 17.7474 30.4039 17.1836 30.7551 16.8345C31.1064 16.4855 31.6737 16.4855 32.025 16.8345L34.7988 19.591C35.15 19.9401 35.15 20.5039 34.7988 20.8529C34.6186 21.0319 34.3935 21.1125 34.1593 21.1125H34.1684Z" fill="#424242"/>
<path d="M22.0463 9.06609C21.8121 9.06609 21.587 8.9766 21.4069 8.80655L18.6331 6.05005C18.2818 5.70101 18.2818 5.13718 18.6331 4.78815C18.9843 4.43911 19.5517 4.43911 19.9029 4.78815L22.6767 7.54465C23.0279 7.89368 23.0279 8.45751 22.6767 8.80655C22.4966 8.98555 22.2714 9.06609 22.0373 9.06609H22.0463Z" fill="#424242"/>
<path d="M26.7206 17.8189C23.9468 17.8189 21.6953 15.5815 21.6953 12.825C21.6953 10.0685 23.9468 7.83105 26.7206 7.83105C29.4944 7.83105 31.7459 10.0685 31.7459 12.825C31.7459 15.5815 29.4944 17.8189 26.7206 17.8189ZM26.7206 10.0595C25.1896 10.0595 23.9468 11.2946 23.9468 12.816C23.9468 14.3375 25.1896 15.5725 26.7206 15.5725C28.2516 15.5725 29.4944 14.3375 29.4944 12.816C29.4944 11.2946 28.2516 10.0595 26.7206 10.0595Z" fill="#F8B737"/>
<path d="M35.8977 43.8803C35.6725 43.4418 35.1232 43.2718 34.6819 43.4955L31.9261 44.9095L28.5849 42.9317L31.89 40.9001L34.6639 42.2694C34.7899 42.332 34.925 42.3589 35.0601 42.3589C35.3933 42.3589 35.7085 42.1799 35.8706 41.8577C36.0958 41.4102 35.9067 40.8822 35.4654 40.6585L33.6912 39.7814L35.1682 38.8775C35.5915 38.6179 35.7265 38.063 35.4564 37.6424C35.1952 37.2218 34.6368 37.0965 34.2136 37.356L32.7366 38.2599V36.291C32.7366 35.7988 32.3403 35.396 31.845 35.396C31.3497 35.396 30.9444 35.7988 30.9444 36.291V39.3697L27.7383 41.3297V37.5977L30.368 35.9688C30.7913 35.7093 30.9174 35.1544 30.6562 34.7338C30.3951 34.3131 29.8367 34.1878 29.4134 34.4474L27.7383 35.4855V33.7582C27.7383 33.266 27.3331 32.8633 26.8377 32.8633C26.3424 32.8633 25.9371 33.266 25.9371 33.7582V35.4855L24.2621 34.4474C23.8388 34.1878 23.2894 34.3131 23.0192 34.7338C22.7581 35.1544 22.8842 35.7093 23.3074 35.9688L25.9371 37.5977V41.3565L22.686 39.4323L22.623 36.3537C22.614 35.8614 22.2177 35.4676 21.7044 35.4766C21.2091 35.4855 20.8128 35.8972 20.8218 36.3895L20.8578 38.3584L19.3629 37.4724C18.9396 37.2218 18.3812 37.356 18.129 37.7856C17.8769 38.2062 18.012 38.7611 18.4443 39.0117L19.9392 39.8977L18.1831 40.8016C17.7418 41.0254 17.5707 41.5713 17.7958 42.0099C17.9579 42.3141 18.2731 42.4931 18.5974 42.4931C18.7324 42.4931 18.8765 42.4573 19.0116 42.3947L21.7674 40.9806L25.1086 42.9585L21.8034 44.9901L19.0206 43.6208C18.5793 43.3971 18.039 43.585 17.8138 44.0235C17.5887 44.4621 17.7778 44.999 18.2191 45.2228L19.9933 46.0999L18.5163 47.0038C18.093 47.2633 17.9579 47.8182 18.2281 48.2388C18.3992 48.5163 18.6964 48.6595 18.9936 48.6595C19.1557 48.6595 19.3178 48.6147 19.4619 48.5252L20.9389 47.6213V49.5902C20.9389 50.0825 21.3351 50.4852 21.8305 50.4852C22.3258 50.4852 22.7311 50.0825 22.7311 49.5902V46.5115L25.9281 44.5516V48.2836L23.2984 49.9124C22.8751 50.172 22.7491 50.7268 23.0102 51.1475C23.1813 51.416 23.4785 51.5681 23.7757 51.5681C23.9378 51.5681 24.0999 51.5234 24.253 51.4339L25.9281 50.3957V52.123C25.9281 52.6152 26.3334 53.018 26.8287 53.018C27.3241 53.018 27.7293 52.6152 27.7293 52.123V50.3957L29.4044 51.4339C29.5485 51.5234 29.7196 51.5681 29.8817 51.5681C30.1789 51.5681 30.4761 51.416 30.6472 51.1475C30.9084 50.7268 30.7823 50.172 30.359 49.9124L27.7293 48.2836V44.5247L30.9804 46.4489L31.0435 49.5276C31.0525 50.0198 31.4578 50.4047 31.9441 50.4047H31.9621C32.4574 50.3957 32.8537 49.984 32.8447 49.4918L32.8086 47.5229L34.3036 48.4089C34.4477 48.4984 34.6098 48.5342 34.7629 48.5342C35.0691 48.5342 35.3663 48.382 35.5374 48.0956C35.7896 47.675 35.6545 47.1201 35.2222 46.8695L33.7272 45.9835L35.4834 45.0796C35.9247 44.8558 36.0958 44.3099 35.8706 43.8714L35.8977 43.8803Z" fill="#424242"/>
<path d="M50.01 30.5721L44.0661 32.2189V28.6121L50.4963 26.8312C50.9736 26.6969 51.2528 26.2047 51.1267 25.7304C50.9916 25.256 50.4963 24.9786 50.019 25.1039L44.0751 26.7506V17.2998C44.0751 16.8075 43.6698 16.4048 43.1745 16.4048C42.6792 16.4048 42.2739 16.8075 42.2739 17.2998V24.3253L37.798 22.8575C37.3207 22.7054 36.8164 22.956 36.6633 23.4303C36.5102 23.8957 36.7623 24.4058 37.2396 24.5579L42.2829 26.2047V29.6682L35.7537 27.6545C35.2764 27.5113 34.772 27.7709 34.6279 28.2452C34.4838 28.7195 34.745 29.2207 35.2223 29.3639L42.2829 31.5387V42.9048C42.2829 43.397 42.6882 43.7998 43.1835 43.7998C43.6789 43.7998 44.0841 43.397 44.0841 42.9048V34.0715L50.5143 32.2905C50.9916 32.1562 51.2708 31.664 51.1447 31.1897C51.0096 30.7153 50.5143 30.4379 50.037 30.5632L50.01 30.5721Z" fill="#424242"/>
<path d="M43.1653 38.8416C37.9689 38.8416 34.3306 34.7605 34.3306 28.9164C34.3306 23.0723 42.1387 16.6732 42.4719 16.4137L43.1653 15.8767L43.8588 16.4137C44.192 16.6732 52.0001 22.7948 52.0001 28.9164C52.0001 35.038 48.3707 38.8416 43.1653 38.8416ZM43.1653 18.7585C41.3462 20.3247 36.582 24.8353 36.582 28.9164C36.582 33.5881 39.1667 36.6042 43.1653 36.6042C47.164 36.6042 49.7487 33.5881 49.7487 28.9164C49.7487 24.8353 44.9845 20.3247 43.1653 18.7585Z" fill="#F8B737"/>
<path d="M26.8107 25.6409C26.3154 25.6409 25.9102 25.2382 25.9102 24.746V19.9758C25.9102 19.4835 26.3154 19.0808 26.8107 19.0808C27.3061 19.0808 27.7113 19.4835 27.7113 19.9758V24.746C27.7113 25.2382 27.3061 25.6409 26.8107 25.6409Z" fill="#424242"/>
<path d="M26.8107 6.56011C26.3154 6.56011 25.9102 6.15738 25.9102 5.66515V0.894968C25.9102 0.402736 26.3154 0 26.8107 0C27.3061 0 27.7113 0.402736 27.7113 0.894968V5.66515C27.7113 6.15738 27.3061 6.56011 26.8107 6.56011Z" fill="#424242"/>
</g>
<defs>
<clipPath id="clip0_1081_2678">
<rect width="52" height="53" fill="white"/>
</clipPath>
</defs>
</svg>
