<svg width="79" height="53" viewBox="0 0 79 53" fill="none" xmlns="http://www.w3.org/2000/svg">
<g clip-path="url(#clip0_1081_2378)">
<path d="M56.2195 52.9999C52.699 52.9999 49.3301 52.2215 46.1888 50.6754C41.9317 48.5887 37.0571 48.5887 32.8 50.6754C29.6587 52.2215 26.2898 52.9999 22.7693 52.9999C16.3024 52.9999 10.1172 50.2429 5.80594 45.4316C1.42969 40.5554 -0.585118 34.2521 0.140647 27.6893C1.2997 17.2558 9.72724 8.84409 20.1912 7.68722C24.5133 7.21149 28.8246 7.9467 32.6701 9.80635C37.0138 11.9039 41.9858 11.9039 46.3296 9.80635C50.1751 7.9467 54.4972 7.21149 58.8084 7.68722C69.2724 8.84409 77.7 17.2558 78.8482 27.6893C79.5739 34.2521 77.5591 40.5554 73.1829 45.4316C68.8608 50.2429 62.6864 52.9999 56.2195 52.9999ZM39.4944 46.4047C42.1917 46.4047 44.8781 47.021 47.3912 48.2535C50.1534 49.605 53.1215 50.297 56.2195 50.297C61.9173 50.297 67.3659 47.8643 71.1681 43.626C75.0244 39.3337 76.8009 33.7764 76.1509 27.9812C75.1327 18.7911 67.7126 11.3849 58.5051 10.3686C54.703 9.94691 50.89 10.5956 47.4995 12.2282C42.4083 14.6933 36.5697 14.6933 31.4785 12.2282C28.088 10.5848 24.2859 9.94691 20.4729 10.3686C11.2654 11.3849 3.83446 18.7911 2.82706 27.9812C2.18795 33.7656 3.95362 39.3229 7.80992 43.626C11.6121 47.8643 17.0607 50.297 22.7585 50.297C25.8565 50.297 28.8246 49.605 31.5868 48.2535C34.0891 47.021 36.7863 46.4047 39.4836 46.4047H39.4944Z" fill="#424242"/>
<path d="M53.1759 45.1073C50.3053 45.1073 47.5539 44.61 44.9866 43.6369C41.4986 42.3178 37.5015 42.3178 34.0244 43.6369C31.4571 44.61 28.7057 45.1073 25.8351 45.1073C19.5849 45.1073 13.7571 42.6963 10.2474 38.6418C7.70186 35.7118 6.5753 32.1222 7.09525 28.5435C8.07016 21.732 15.0678 16.2611 23.7337 15.5259C27.2542 15.2232 30.7747 15.6881 33.9269 16.8558C37.4799 18.1856 41.5636 18.1856 45.1166 16.8558C48.2688 15.6773 51.7893 15.2124 55.3098 15.5259C63.9757 16.2611 70.9733 21.7428 71.9482 28.5435C72.4574 32.1222 71.3416 35.7118 68.7961 38.6418C65.2756 42.6854 59.4478 45.1073 53.2084 45.1073H53.1759ZM39.4947 39.95C41.6936 39.95 43.8926 40.3393 45.9399 41.1177C48.193 41.9719 50.6303 42.4043 53.165 42.4043C58.6354 42.4043 63.7049 40.3393 66.7054 36.8686C68.7636 34.5008 69.6301 31.7546 69.2293 28.9219C68.4278 23.3429 62.4592 18.8452 55.039 18.2073C51.9085 17.9478 48.7996 18.3478 46.0266 19.3858C41.8669 20.9319 37.1007 20.9319 32.9411 19.3858C30.1681 18.3478 27.0484 17.9478 23.9286 18.2073C16.5085 18.8344 10.5399 23.3429 9.73833 28.9219C9.3267 31.7546 10.2041 34.5008 12.2623 36.8686C15.2736 40.3284 20.3323 42.4043 25.8026 42.4043C28.3374 42.4043 30.7747 41.9719 33.0278 41.1177C35.0751 40.3393 37.274 39.95 39.473 39.95H39.4947Z" fill="#424242"/>
<path d="M27.4926 0C24.4053 0 21.9031 2.50836 21.9031 5.57895V8.19543C21.9031 8.94145 22.5097 9.54692 23.2571 9.54692C24.0046 9.54692 24.6112 8.94145 24.6112 8.19543V5.57895C24.6112 3.9896 25.9002 2.70298 27.4926 2.70298C29.0849 2.70298 30.3739 3.9896 30.3739 5.57895V14.7475H19.5525V5.57895C19.5525 2.49755 17.0394 0 13.963 0C10.8866 0 8.37354 2.50836 8.37354 5.57895V12.6391C8.37354 13.3851 8.98014 13.9906 9.72757 13.9906C10.475 13.9906 11.0816 13.3851 11.0816 12.6391V5.57895C11.0816 3.9896 12.3707 2.70298 13.963 2.70298C15.5554 2.70298 16.8444 3.9896 16.8444 5.57895V30.8464C16.8444 31.5924 17.451 32.1979 18.1984 32.1979C18.9459 32.1979 19.5525 31.5924 19.5525 30.8464V25.3215H30.3739V30.8464C30.3739 31.5924 30.9806 32.1979 31.728 32.1979C32.4754 32.1979 33.082 31.5924 33.082 30.8464V5.57895C33.082 2.49755 30.5689 0 27.4926 0ZM19.5525 22.6185V17.4504H30.3739V22.6185H19.5525Z" fill="#F8C009"/>
<path d="M56.2195 52.9999C52.699 52.9999 49.3301 52.2215 46.1888 50.6754C41.9317 48.5887 37.0571 48.5887 32.8 50.6754C29.6587 52.2215 26.2898 52.9999 22.7693 52.9999C16.3024 52.9999 10.1172 50.2429 5.80594 45.4316C1.42969 40.5554 -0.585118 34.2521 0.140647 27.6893C0.931405 20.5642 5.16684 14.1527 11.4821 10.5308C12.132 10.1631 12.9553 10.3794 13.3344 11.0281C13.7135 11.6768 13.486 12.4985 12.8361 12.8769C7.2683 16.0665 3.53116 21.7211 2.83789 27.992C2.19878 33.7764 3.96445 39.3337 7.82075 43.6368C11.6229 47.8751 17.0715 50.3078 22.7693 50.3078C25.8674 50.3078 28.8354 49.6158 31.5977 48.2643C36.613 45.7992 42.365 45.7992 47.3803 48.2643C50.1426 49.6158 53.1106 50.3078 56.2087 50.3078C61.9065 50.3078 67.3551 47.8751 71.1572 43.6368C75.0135 39.3445 76.79 33.7872 76.1401 27.992C75.1219 18.8019 67.7017 11.3957 58.4943 10.3794C54.6921 9.95772 50.8792 10.6064 47.4887 12.239C43.3074 14.2609 38.5845 14.6285 34.1866 13.2986C33.4716 13.0824 33.0709 12.3255 33.2875 11.6119C33.5041 10.8984 34.2624 10.4983 34.9773 10.7146C38.7253 11.8498 42.7549 11.5254 46.3188 9.80635C50.1642 7.9467 54.4863 7.21149 58.7976 7.68722C69.2616 8.84409 77.6891 17.2558 78.8373 27.6893C79.5631 34.2521 77.5483 40.5554 73.1721 45.4316C68.85 50.2429 62.6755 52.9999 56.2087 52.9999H56.2195Z" fill="#424242"/>
<path d="M26.3335 10.5417C26.2577 10.5417 26.1819 10.5417 26.1061 10.5201C24.622 10.2714 23.0947 10.1957 21.5782 10.2822C20.8307 10.3147 20.1916 9.75244 20.1483 9.01723C20.105 8.27121 20.6791 7.63331 21.4157 7.59006C23.138 7.49275 24.8712 7.59006 26.5502 7.86036C27.2868 7.97929 27.7851 8.68206 27.6659 9.41727C27.5576 10.0768 26.9835 10.5417 26.3335 10.5417Z" fill="#424242"/>
</g>
<defs>
<clipPath id="clip0_1081_2378">
<rect width="79" height="53" fill="white"/>
</clipPath>
</defs>
</svg>
