<?xml version="1.0" encoding="UTF-8"?>
<svg xmlns="http://www.w3.org/2000/svg" viewBox="285 160 430 160">
  <defs>
    <style>
      .st0 { fill: #fcd13e; }
      .st1 { fill: #fff; }
      .st2 { fill: #60c0bd; }
    </style>
  </defs>
  <g>
    <path d="M519.71,301.01c0,4.97,2.95,7.93,7.93,7.93h53.02v-37.19h-14.7v23.61h-31.54v-28.4h46.24v-13.55h-60.94v47.58h0v.02Z"/>
    <path d="M552.72,229.96h-33.84c-9.52,0-13.41-5.35-13.41-18.41v-14.84h40.07v-13.55h-54.8v28.82c0,20.63,9.68,31.54,27.97,31.54h33.98v-13.55h.02Z"/>
    <path d="M616.55,240.7v-14.84h40.07v-13.55h-54.8v28.82c0,20.63,9.68,31.54,27.97,31.54h33.98v-13.55h-33.84c-9.52,0-13.41-5.35-13.41-18.41h.02Z"/>
    <polygon points="601.82 183.13 581.92 183.13 581.92 164.51 567.1 164.51 567.1 243.51 581.92 243.51 581.92 196.64 601.82 196.64 601.82 183.13"/>
    <polygon points="690.41 193.66 675.57 193.66 675.57 272.66 690.41 272.66 690.41 225.78 710.32 225.78 710.32 212.28 690.41 212.28 690.41 193.66"/>
  </g>
  <g>
    <g>
      <path class="st2" d="M445.35,199.94c-10.36-11-24.86-16.51-43.47-16.51h-70.37c39.14.61,58.71,21.48,58.71,62.68s-19.58,62.04-58.71,62.63h0l70.18.09c11.94,0,22.42-2.67,31.4-8.02,8.98-5.35,15.87-12.76,20.66-22.25,4.78-9.5,7.18-20.4,7.18-32.71,0-19.6-5.18-34.91-15.55-45.91h-.02Z"/>
      <path class="st0" d="M331.32,183.41c-.56,0-35.29-.02-35.29-.02-4.95,0-8,5.42-5.42,9.64l9.45,21.64v74.73c0,10.79,8.75,19.53,19.53,19.53h11.75c39.21-.59,58.81-21.48,58.81-62.72s-19.6-62.14-58.81-62.72v-.05l-.02-.02Z"/>
    </g>
    <circle class="st1" cx="352.59" cy="242.71" r="27.74"/>
    <ellipse cx="361.99" cy="242.71" rx="18.34" ry="21.15"/>
    <circle class="st1" cx="423.29" cy="242.71" r="27.74"/>
    <ellipse cx="432.69" cy="242.71" rx="18.34" ry="21.15"/>
  </g>
</svg>
