<svg width="63" height="55" viewBox="0 0 63 55" fill="none" xmlns="http://www.w3.org/2000/svg">
<g clip-path="url(#clip0_617_1843)">
<path d="M29.6468 26.9679C30.6848 26.9679 31.5256 26.1504 31.5256 25.1411C31.5256 24.1318 30.6848 23.3143 29.6468 23.3143H21.7418C20.7038 23.3143 19.8631 24.1318 19.8631 25.1411V41.331H9.59557C8.55755 41.331 7.7168 42.1485 7.7168 43.1578V53.1732C7.7168 54.1825 8.55755 55 9.59557 55H21.7418C22.7799 55 23.6206 54.1825 23.6206 53.1732V26.9679H29.6468ZM19.8584 44.9892V51.351H11.4696V44.9892H19.8584Z" fill="#FFFFFF"/>
<path d="M14.0579 36.9513C14.0579 35.942 13.2172 35.1245 12.1792 35.1245H3.75755V26.9679H12.1792C13.2172 26.9679 14.0579 26.1504 14.0579 25.1411C14.0579 24.1318 13.2172 23.3143 12.1792 23.3143H1.87877C0.840751 23.3143 0 24.1318 0 25.1411V36.9513C0 37.9606 0.840751 38.7781 1.87877 38.7781H12.1792C13.2172 38.7781 14.0579 37.9606 14.0579 36.9513Z" fill="#FFFFFF"/>
<path d="M39.9428 40.9839C40.9808 40.9839 41.8216 40.1664 41.8216 39.1571C41.8216 38.1478 40.9808 37.3303 39.9428 37.3303H29.6424C28.6044 37.3303 27.7637 38.1478 27.7637 39.1571V50.9673C27.7637 51.9766 28.6044 52.7941 29.6424 52.7941H39.9428C40.9808 52.7941 41.8216 51.9766 41.8216 50.9673C41.8216 49.958 40.9808 49.1405 39.9428 49.1405H31.5212V40.9839H39.9428Z" fill="#FFFFFF"/>
<path d="M54.8511 23.3143H46.9462C45.9081 23.3143 45.0674 24.1318 45.0674 25.1411V53.1732C45.0674 54.1825 45.9081 55 46.9462 55C47.9842 55 48.8249 54.1825 48.8249 53.1732V26.9679H54.8511C55.8891 26.9679 56.7299 26.1504 56.7299 25.1411C56.7299 24.1318 55.8891 23.3143 54.8511 23.3143Z" fill="#FFFFFF"/>
<path d="M61.5487 25.2644C61.4924 25.2644 61.4313 25.2644 61.375 25.2507C60.7315 25.1594 60.29 24.5748 60.3886 23.9537C61.0368 19.7293 60.3886 17.9208 59.7357 17.1444C59.5432 16.916 59.3177 16.7425 59.0547 16.6237C58.895 17.2585 58.7071 17.9116 58.4817 18.583C58.1341 19.6288 57.1712 20.3641 56.0345 20.46C54.9261 20.5559 53.9209 20.0261 53.409 19.0853C53.1131 18.5419 52.7796 17.4321 53.8599 16.1168C54.6912 15.1029 55.8702 14.4316 57.1477 14.2169C58.0214 8.32555 55.6024 4.81812 53.9303 3.16031L50.4687 18.7063C50.356 19.2178 49.9003 19.5877 49.3602 19.606C48.8294 19.6197 48.341 19.2817 48.1907 18.7793C47.1151 15.1395 46.2039 14.8974 46.1945 14.8974C45.6872 14.8974 44.466 16.7105 43.7521 18.8433C43.5877 19.3365 43.1039 19.6608 42.559 19.6288C42.0236 19.5968 41.5821 19.2132 41.4787 18.7017C41.1594 17.0713 40.8681 16.1762 40.6568 15.6875C40.2528 16.4776 39.755 17.9756 39.4497 19.3959C39.3275 19.9576 38.7921 20.3458 38.2097 20.3001C37.6226 20.2545 37.1576 19.7932 37.1247 19.2223V19.0945C36.9979 16.8475 35.6264 14.8837 33.5973 13.9064C33.7852 16.7014 33.3718 18.5008 32.3338 19.5009C31.6621 20.1494 30.7697 20.4143 29.7505 20.2636C27.9234 19.9987 26.5049 18.4642 26.3734 16.6192C26.2231 14.4453 26.7726 12.792 27.9657 11.8376C28.7172 11.2393 29.6894 10.9379 30.8308 10.9516C29.4781 4.56237 25.2039 2.83149 22.9071 2.36566V17.5417C22.9071 18.1719 22.381 18.6834 21.7328 18.6834C21.0847 18.6834 20.5586 18.1719 20.5586 17.5417V1.85416C20.5586 1.31526 20.7981 0.799191 21.2209 0.447534C21.6389 0.0958779 22.1931 -0.0593991 22.7427 0.0182394C24.8516 0.324226 31.7467 2.05054 33.292 11.3489C35.4479 11.9837 37.2092 13.3766 38.2942 15.1851C38.9706 13.71 39.7738 12.9702 40.6897 12.9702H40.7038C41.7183 12.9793 42.3993 13.7465 42.916 15.0527C43.7098 13.7694 44.8089 12.6185 46.1804 12.6185C46.1945 12.6185 46.2086 12.6185 46.218 12.6185C47.3969 12.6368 48.2846 13.4588 48.9657 14.5732L51.7885 1.89526C51.9294 1.25589 52.3944 0.753521 53.0332 0.548008C53.672 0.342494 54.3577 0.474936 54.8697 0.908798C56.7673 2.52094 60.5436 6.76365 59.4821 14.354C60.29 14.596 60.9851 15.0527 61.5347 15.6966C62.9484 17.3682 63.3289 20.1814 62.6995 24.2962C62.6103 24.8625 62.1124 25.269 61.5394 25.269L61.5487 25.2644ZM56.5747 16.8018C56.2365 16.9891 55.9359 17.2357 55.687 17.5417C55.5789 17.6696 55.4146 17.9025 55.4756 18.0167C55.5461 18.14 55.6635 18.1993 55.8232 18.1856C55.8796 18.1811 56.152 18.1445 56.2412 17.8751C56.3633 17.5097 56.4714 17.1535 56.5747 16.8018ZM30.7932 13.2396C30.2812 13.2396 29.8022 13.3355 29.464 13.6095C28.689 14.2306 28.6655 15.6692 28.7219 16.4685C28.7782 17.254 29.356 17.9025 30.1028 18.0121C30.4926 18.0669 30.6194 17.9482 30.6852 17.8842C30.9059 17.6696 31.5447 16.7379 31.1878 13.2579C31.0562 13.2487 30.9247 13.2396 30.7979 13.2396H30.7932Z" fill="#F7B635"/>
</g>
<defs>
<clipPath id="clip0_617_1843">
<rect width="63" height="55" fill="white"/>
</clipPath>
</defs>
</svg>
